G04 #@! TF.GenerationSoftware,KiCad,Pcbnew,8.0.8*
G04 #@! TF.CreationDate,2025-05-02T10:21:30-04:00*
G04 #@! TF.ProjectId,esp32,65737033-322e-46b6-9963-61645f706362,rev?*
G04 #@! TF.SameCoordinates,Original*
G04 #@! TF.FileFunction,Copper,L4,Bot*
G04 #@! TF.FilePolarity,Positive*
%FSLAX46Y46*%
G04 Gerber Fmt 4.6, Leading zero omitted, Abs format (unit mm)*
G04 Created by KiCad (PCBNEW 8.0.8) date 2025-05-02 10:21:30*
%MOMM*%
%LPD*%
G01*
G04 APERTURE LIST*
G04 #@! TA.AperFunction,ComponentPad*
%ADD10R,2.000000X2.000000*%
G04 #@! TD*
G04 #@! TA.AperFunction,ComponentPad*
%ADD11C,2.000000*%
G04 #@! TD*
G04 #@! TA.AperFunction,HeatsinkPad*
%ADD12C,0.600000*%
G04 #@! TD*
G04 #@! TA.AperFunction,ComponentPad*
%ADD13C,1.600000*%
G04 #@! TD*
G04 #@! TA.AperFunction,ComponentPad*
%ADD14O,1.600000X1.600000*%
G04 #@! TD*
G04 #@! TA.AperFunction,ViaPad*
%ADD15C,0.600000*%
G04 #@! TD*
G04 #@! TA.AperFunction,Conductor*
%ADD16C,0.200000*%
G04 #@! TD*
G04 APERTURE END LIST*
D10*
X117200000Y-99000000D03*
D11*
X124800000Y-99000000D03*
D12*
X136237500Y-98237500D03*
X136237500Y-99762500D03*
X137000000Y-97475000D03*
X137000000Y-99000000D03*
X137000000Y-100525000D03*
X137762500Y-98237500D03*
X137762500Y-99762500D03*
X138525000Y-97475000D03*
X138525000Y-99000000D03*
X138525000Y-100525000D03*
X139287500Y-98237500D03*
X139287500Y-99762500D03*
D13*
X152190000Y-94000000D03*
D14*
X159810000Y-94000000D03*
D15*
X126300000Y-93700000D03*
X150400000Y-93700000D03*
X149700000Y-100400000D03*
X154300000Y-100500000D03*
X158900000Y-107300000D03*
X144700000Y-107300000D03*
X156500000Y-99000000D03*
X152200000Y-98900000D03*
D16*
X126300000Y-93700000D02*
X150400000Y-93700000D01*
X154200000Y-100400000D02*
X154300000Y-100500000D01*
X149700000Y-100400000D02*
X154200000Y-100400000D01*
X144700000Y-107300000D02*
X158900000Y-107300000D01*
X152200000Y-98900000D02*
X156400000Y-98900000D01*
X156400000Y-98900000D02*
X156500000Y-99000000D01*
G04 #@! TA.AperFunction,Conductor*
G36*
X162542539Y-90129685D02*
G01*
X162588294Y-90182489D01*
X162599500Y-90234000D01*
X162599500Y-110875500D01*
X162579815Y-110942539D01*
X162527011Y-110988294D01*
X162475500Y-110999500D01*
X114524500Y-110999500D01*
X114457461Y-110979815D01*
X114411706Y-110927011D01*
X114400500Y-110875500D01*
X114400500Y-107299996D01*
X143894435Y-107299996D01*
X143894435Y-107300003D01*
X143914630Y-107479249D01*
X143914631Y-107479254D01*
X143974211Y-107649523D01*
X144070184Y-107802262D01*
X144197738Y-107929816D01*
X144350478Y-108025789D01*
X144520745Y-108085368D01*
X144520750Y-108085369D01*
X144699996Y-108105565D01*
X144700000Y-108105565D01*
X144700004Y-108105565D01*
X144879249Y-108085369D01*
X144879252Y-108085368D01*
X144879255Y-108085368D01*
X145049522Y-108025789D01*
X145202262Y-107929816D01*
X145202267Y-107929810D01*
X145205097Y-107927555D01*
X145207275Y-107926665D01*
X145208158Y-107926111D01*
X145208255Y-107926265D01*
X145269783Y-107901145D01*
X145282412Y-107900500D01*
X158317588Y-107900500D01*
X158384627Y-107920185D01*
X158394903Y-107927555D01*
X158397736Y-107929814D01*
X158397738Y-107929816D01*
X158550478Y-108025789D01*
X158720745Y-108085368D01*
X158720750Y-108085369D01*
X158899996Y-108105565D01*
X158900000Y-108105565D01*
X158900004Y-108105565D01*
X159079249Y-108085369D01*
X159079252Y-108085368D01*
X159079255Y-108085368D01*
X159249522Y-108025789D01*
X159402262Y-107929816D01*
X159529816Y-107802262D01*
X159625789Y-107649522D01*
X159685368Y-107479255D01*
X159705565Y-107300000D01*
X159685368Y-107120745D01*
X159625789Y-106950478D01*
X159529816Y-106797738D01*
X159402262Y-106670184D01*
X159249523Y-106574211D01*
X159079254Y-106514631D01*
X159079249Y-106514630D01*
X158900004Y-106494435D01*
X158899996Y-106494435D01*
X158720750Y-106514630D01*
X158720745Y-106514631D01*
X158550476Y-106574211D01*
X158397736Y-106670185D01*
X158394903Y-106672445D01*
X158392724Y-106673334D01*
X158391842Y-106673889D01*
X158391744Y-106673734D01*
X158330217Y-106698855D01*
X158317588Y-106699500D01*
X145282412Y-106699500D01*
X145215373Y-106679815D01*
X145205097Y-106672445D01*
X145202263Y-106670185D01*
X145202262Y-106670184D01*
X145145496Y-106634515D01*
X145049523Y-106574211D01*
X144879254Y-106514631D01*
X144879249Y-106514630D01*
X144700004Y-106494435D01*
X144699996Y-106494435D01*
X144520750Y-106514630D01*
X144520745Y-106514631D01*
X144350476Y-106574211D01*
X144197737Y-106670184D01*
X144070184Y-106797737D01*
X143974211Y-106950476D01*
X143914631Y-107120745D01*
X143914630Y-107120750D01*
X143894435Y-107299996D01*
X114400500Y-107299996D01*
X114400500Y-97952135D01*
X115699500Y-97952135D01*
X115699500Y-100047870D01*
X115699501Y-100047876D01*
X115705908Y-100107483D01*
X115756202Y-100242328D01*
X115756206Y-100242335D01*
X115842452Y-100357544D01*
X115842455Y-100357547D01*
X115957664Y-100443793D01*
X115957671Y-100443797D01*
X116092517Y-100494091D01*
X116092516Y-100494091D01*
X116099444Y-100494835D01*
X116152127Y-100500500D01*
X118247872Y-100500499D01*
X118307483Y-100494091D01*
X118442331Y-100443796D01*
X118557546Y-100357546D01*
X118643796Y-100242331D01*
X118694091Y-100107483D01*
X118700500Y-100047873D01*
X118700499Y-98999994D01*
X123294859Y-98999994D01*
X123294859Y-99000005D01*
X123315385Y-99247729D01*
X123315387Y-99247738D01*
X123376412Y-99488717D01*
X123476267Y-99716367D01*
X123612227Y-99924470D01*
X123636753Y-99951113D01*
X124356329Y-99231538D01*
X124399901Y-99307007D01*
X124492993Y-99400099D01*
X124568461Y-99443670D01*
X123850418Y-100161712D01*
X123976768Y-100260055D01*
X123976771Y-100260057D01*
X124195385Y-100378364D01*
X124195396Y-100378369D01*
X124430506Y-100459083D01*
X124675707Y-100500000D01*
X124924293Y-100500000D01*
X125169493Y-100459083D01*
X125341606Y-100399996D01*
X148894435Y-100399996D01*
X148894435Y-100400003D01*
X148914630Y-100579249D01*
X148914631Y-100579254D01*
X148974211Y-100749523D01*
X149037045Y-100849522D01*
X149070184Y-100902262D01*
X149197738Y-101029816D01*
X149350478Y-101125789D01*
X149361984Y-101129815D01*
X149520745Y-101185368D01*
X149520750Y-101185369D01*
X149699996Y-101205565D01*
X149700000Y-101205565D01*
X149700004Y-101205565D01*
X149879249Y-101185369D01*
X149879252Y-101185368D01*
X149879255Y-101185368D01*
X150049522Y-101125789D01*
X150202262Y-101029816D01*
X150202267Y-101029810D01*
X150205097Y-101027555D01*
X150207275Y-101026665D01*
X150208158Y-101026111D01*
X150208255Y-101026265D01*
X150269783Y-101001145D01*
X150282412Y-101000500D01*
X153617059Y-101000500D01*
X153684098Y-101020185D01*
X153704740Y-101036818D01*
X153797738Y-101129816D01*
X153950478Y-101225789D01*
X154120745Y-101285368D01*
X154120750Y-101285369D01*
X154299996Y-101305565D01*
X154300000Y-101305565D01*
X154300004Y-101305565D01*
X154479249Y-101285369D01*
X154479252Y-101285368D01*
X154479255Y-101285368D01*
X154649522Y-101225789D01*
X154802262Y-101129816D01*
X154929816Y-101002262D01*
X155025789Y-100849522D01*
X155085368Y-100679255D01*
X155105565Y-100500000D01*
X155104899Y-100494091D01*
X155085369Y-100320750D01*
X155085368Y-100320745D01*
X155064132Y-100260055D01*
X155025789Y-100150478D01*
X154998773Y-100107483D01*
X154962955Y-100050478D01*
X154929816Y-99997738D01*
X154802262Y-99870184D01*
X154699422Y-99805565D01*
X154649521Y-99774210D01*
X154556160Y-99741542D01*
X154499383Y-99700820D01*
X154473636Y-99635867D01*
X154487092Y-99567306D01*
X154535479Y-99516903D01*
X154597114Y-99500500D01*
X155817059Y-99500500D01*
X155884098Y-99520185D01*
X155904740Y-99536818D01*
X155997738Y-99629816D01*
X156150478Y-99725789D01*
X156306816Y-99780494D01*
X156320745Y-99785368D01*
X156320750Y-99785369D01*
X156499996Y-99805565D01*
X156500000Y-99805565D01*
X156500004Y-99805565D01*
X156679249Y-99785369D01*
X156679252Y-99785368D01*
X156679255Y-99785368D01*
X156849522Y-99725789D01*
X157002262Y-99629816D01*
X157129816Y-99502262D01*
X157225789Y-99349522D01*
X157285368Y-99179255D01*
X157285369Y-99179249D01*
X157305565Y-99000003D01*
X157305565Y-98999996D01*
X157285369Y-98820750D01*
X157285368Y-98820745D01*
X157273864Y-98787868D01*
X157225789Y-98650478D01*
X157129816Y-98497738D01*
X157002262Y-98370184D01*
X156849523Y-98274211D01*
X156679254Y-98214631D01*
X156679249Y-98214630D01*
X156500004Y-98194435D01*
X156499996Y-98194435D01*
X156320750Y-98214630D01*
X156320745Y-98214631D01*
X156150474Y-98274212D01*
X156140477Y-98280494D01*
X156074506Y-98299500D01*
X152782412Y-98299500D01*
X152715373Y-98279815D01*
X152705097Y-98272445D01*
X152702263Y-98270185D01*
X152702262Y-98270184D01*
X152613850Y-98214631D01*
X152549523Y-98174211D01*
X152379254Y-98114631D01*
X152379249Y-98114630D01*
X152200004Y-98094435D01*
X152199996Y-98094435D01*
X152020750Y-98114630D01*
X152020745Y-98114631D01*
X151850476Y-98174211D01*
X151697737Y-98270184D01*
X151570184Y-98397737D01*
X151474211Y-98550476D01*
X151414631Y-98720745D01*
X151414630Y-98720750D01*
X151394435Y-98899996D01*
X151394435Y-98900003D01*
X151414630Y-99079249D01*
X151414631Y-99079254D01*
X151474211Y-99249523D01*
X151510331Y-99307007D01*
X151570184Y-99402262D01*
X151697738Y-99529816D01*
X151708882Y-99536818D01*
X151762496Y-99570506D01*
X151808787Y-99622841D01*
X151819435Y-99691894D01*
X151791060Y-99755743D01*
X151732670Y-99794115D01*
X151696524Y-99799500D01*
X150282412Y-99799500D01*
X150215373Y-99779815D01*
X150205097Y-99772445D01*
X150202263Y-99770185D01*
X150202262Y-99770184D01*
X150113852Y-99714632D01*
X150049523Y-99674211D01*
X149879254Y-99614631D01*
X149879249Y-99614630D01*
X149700004Y-99594435D01*
X149699996Y-99594435D01*
X149520750Y-99614630D01*
X149520745Y-99614631D01*
X149350476Y-99674211D01*
X149197737Y-99770184D01*
X149070184Y-99897737D01*
X148974211Y-100050476D01*
X148914631Y-100220745D01*
X148914630Y-100220750D01*
X148894435Y-100399996D01*
X125341606Y-100399996D01*
X125404603Y-100378369D01*
X125404614Y-100378364D01*
X125623230Y-100260056D01*
X125623235Y-100260052D01*
X125749580Y-100161713D01*
X125749580Y-100161712D01*
X125031538Y-99443670D01*
X125107007Y-99400099D01*
X125200099Y-99307007D01*
X125243670Y-99231539D01*
X125963244Y-99951113D01*
X125963246Y-99951113D01*
X125987769Y-99924475D01*
X126123732Y-99716367D01*
X126223587Y-99488717D01*
X126284612Y-99247738D01*
X126284614Y-99247729D01*
X126305141Y-99000005D01*
X126305141Y-98999994D01*
X126284614Y-98752270D01*
X126284612Y-98752261D01*
X126223587Y-98511282D01*
X126123732Y-98283632D01*
X125987770Y-98075525D01*
X125963245Y-98048885D01*
X125243670Y-98768460D01*
X125200099Y-98692993D01*
X125107007Y-98599901D01*
X125031538Y-98556329D01*
X125749580Y-97838286D01*
X125749580Y-97838285D01*
X125623236Y-97739947D01*
X125623231Y-97739944D01*
X125404614Y-97621635D01*
X125404603Y-97621630D01*
X125169493Y-97540916D01*
X124924293Y-97500000D01*
X124675707Y-97500000D01*
X124430506Y-97540916D01*
X124195396Y-97621630D01*
X124195385Y-97621635D01*
X123976768Y-97739944D01*
X123976765Y-97739946D01*
X123850418Y-97838285D01*
X123850418Y-97838286D01*
X124568461Y-98556329D01*
X124492993Y-98599901D01*
X124399901Y-98692993D01*
X124356329Y-98768460D01*
X123636753Y-98048884D01*
X123636752Y-98048884D01*
X123612237Y-98075516D01*
X123476266Y-98283635D01*
X123376412Y-98511282D01*
X123315387Y-98752261D01*
X123315385Y-98752270D01*
X123294859Y-98999994D01*
X118700499Y-98999994D01*
X118700499Y-97952128D01*
X118694091Y-97892517D01*
X118643796Y-97757669D01*
X118643795Y-97757668D01*
X118643793Y-97757664D01*
X118557547Y-97642455D01*
X118557544Y-97642452D01*
X118442335Y-97556206D01*
X118442328Y-97556202D01*
X118307482Y-97505908D01*
X118307483Y-97505908D01*
X118247883Y-97499501D01*
X118247881Y-97499500D01*
X118247873Y-97499500D01*
X118247864Y-97499500D01*
X116152129Y-97499500D01*
X116152123Y-97499501D01*
X116092516Y-97505908D01*
X115957671Y-97556202D01*
X115957664Y-97556206D01*
X115842455Y-97642452D01*
X115842452Y-97642455D01*
X115756206Y-97757664D01*
X115756202Y-97757671D01*
X115705908Y-97892517D01*
X115699501Y-97952116D01*
X115699501Y-97952123D01*
X115699500Y-97952135D01*
X114400500Y-97952135D01*
X114400500Y-93699996D01*
X125494435Y-93699996D01*
X125494435Y-93700003D01*
X125514630Y-93879249D01*
X125514631Y-93879254D01*
X125574211Y-94049523D01*
X125670184Y-94202262D01*
X125797738Y-94329816D01*
X125881374Y-94382368D01*
X125950474Y-94425787D01*
X125950478Y-94425789D01*
X126030978Y-94453957D01*
X126120745Y-94485368D01*
X126120750Y-94485369D01*
X126299996Y-94505565D01*
X126300000Y-94505565D01*
X126300004Y-94505565D01*
X126479249Y-94485369D01*
X126479252Y-94485368D01*
X126479255Y-94485368D01*
X126649522Y-94425789D01*
X126802262Y-94329816D01*
X126802267Y-94329810D01*
X126805097Y-94327555D01*
X126807275Y-94326665D01*
X126808158Y-94326111D01*
X126808255Y-94326265D01*
X126869783Y-94301145D01*
X126882412Y-94300500D01*
X149817588Y-94300500D01*
X149884627Y-94320185D01*
X149894903Y-94327555D01*
X149897736Y-94329814D01*
X149897738Y-94329816D01*
X149981374Y-94382368D01*
X150050474Y-94425787D01*
X150050478Y-94425789D01*
X150130978Y-94453957D01*
X150220745Y-94485368D01*
X150220750Y-94485369D01*
X150399996Y-94505565D01*
X150400000Y-94505565D01*
X150400004Y-94505565D01*
X150579249Y-94485369D01*
X150579252Y-94485368D01*
X150579255Y-94485368D01*
X150749522Y-94425789D01*
X150788385Y-94401369D01*
X150855620Y-94382368D01*
X150922456Y-94402734D01*
X150966740Y-94453957D01*
X151059431Y-94652732D01*
X151059432Y-94652734D01*
X151189954Y-94839141D01*
X151350858Y-95000045D01*
X151350861Y-95000047D01*
X151537266Y-95130568D01*
X151743504Y-95226739D01*
X151963308Y-95285635D01*
X152125230Y-95299801D01*
X152189998Y-95305468D01*
X152190000Y-95305468D01*
X152190002Y-95305468D01*
X152246673Y-95300509D01*
X152416692Y-95285635D01*
X152636496Y-95226739D01*
X152842734Y-95130568D01*
X153029139Y-95000047D01*
X153190047Y-94839139D01*
X153320568Y-94652734D01*
X153416739Y-94446496D01*
X153475635Y-94226692D01*
X153495468Y-94000000D01*
X153495468Y-93999998D01*
X158504532Y-93999998D01*
X158504532Y-94000001D01*
X158524364Y-94226686D01*
X158524366Y-94226697D01*
X158583258Y-94446488D01*
X158583261Y-94446497D01*
X158679431Y-94652732D01*
X158679432Y-94652734D01*
X158809954Y-94839141D01*
X158970858Y-95000045D01*
X158970861Y-95000047D01*
X159157266Y-95130568D01*
X159363504Y-95226739D01*
X159583308Y-95285635D01*
X159745230Y-95299801D01*
X159809998Y-95305468D01*
X159810000Y-95305468D01*
X159810002Y-95305468D01*
X159866673Y-95300509D01*
X160036692Y-95285635D01*
X160256496Y-95226739D01*
X160462734Y-95130568D01*
X160649139Y-95000047D01*
X160810047Y-94839139D01*
X160940568Y-94652734D01*
X161036739Y-94446496D01*
X161095635Y-94226692D01*
X161115468Y-94000000D01*
X161095635Y-93773308D01*
X161036739Y-93553504D01*
X160940568Y-93347266D01*
X160812474Y-93164327D01*
X160810045Y-93160858D01*
X160649141Y-92999954D01*
X160462734Y-92869432D01*
X160462732Y-92869431D01*
X160256497Y-92773261D01*
X160256488Y-92773258D01*
X160036697Y-92714366D01*
X160036693Y-92714365D01*
X160036692Y-92714365D01*
X160036691Y-92714364D01*
X160036686Y-92714364D01*
X159810002Y-92694532D01*
X159809998Y-92694532D01*
X159583313Y-92714364D01*
X159583302Y-92714366D01*
X159363511Y-92773258D01*
X159363502Y-92773261D01*
X159157267Y-92869431D01*
X159157265Y-92869432D01*
X158970858Y-92999954D01*
X158809954Y-93160858D01*
X158679432Y-93347265D01*
X158679431Y-93347267D01*
X158583261Y-93553502D01*
X158583258Y-93553511D01*
X158524366Y-93773302D01*
X158524364Y-93773313D01*
X158504532Y-93999998D01*
X153495468Y-93999998D01*
X153475635Y-93773308D01*
X153416739Y-93553504D01*
X153320568Y-93347266D01*
X153192474Y-93164327D01*
X153190045Y-93160858D01*
X153029141Y-92999954D01*
X152842734Y-92869432D01*
X152842732Y-92869431D01*
X152636497Y-92773261D01*
X152636488Y-92773258D01*
X152416697Y-92714366D01*
X152416693Y-92714365D01*
X152416692Y-92714365D01*
X152416691Y-92714364D01*
X152416686Y-92714364D01*
X152190002Y-92694532D01*
X152189998Y-92694532D01*
X151963313Y-92714364D01*
X151963302Y-92714366D01*
X151743511Y-92773258D01*
X151743502Y-92773261D01*
X151537267Y-92869431D01*
X151537265Y-92869432D01*
X151350862Y-92999951D01*
X151189951Y-93160863D01*
X151187045Y-93164327D01*
X151128872Y-93203027D01*
X151059011Y-93204133D01*
X151004377Y-93172299D01*
X150902262Y-93070184D01*
X150749523Y-92974211D01*
X150579254Y-92914631D01*
X150579249Y-92914630D01*
X150400004Y-92894435D01*
X150399996Y-92894435D01*
X150220750Y-92914630D01*
X150220745Y-92914631D01*
X150050476Y-92974211D01*
X149897736Y-93070185D01*
X149894903Y-93072445D01*
X149892724Y-93073334D01*
X149891842Y-93073889D01*
X149891744Y-93073734D01*
X149830217Y-93098855D01*
X149817588Y-93099500D01*
X126882412Y-93099500D01*
X126815373Y-93079815D01*
X126805097Y-93072445D01*
X126802263Y-93070185D01*
X126802262Y-93070184D01*
X126690492Y-92999954D01*
X126649523Y-92974211D01*
X126479254Y-92914631D01*
X126479249Y-92914630D01*
X126300004Y-92894435D01*
X126299996Y-92894435D01*
X126120750Y-92914630D01*
X126120745Y-92914631D01*
X125950476Y-92974211D01*
X125797737Y-93070184D01*
X125670184Y-93197737D01*
X125574211Y-93350476D01*
X125514631Y-93520745D01*
X125514630Y-93520750D01*
X125494435Y-93699996D01*
X114400500Y-93699996D01*
X114400500Y-90234000D01*
X114420185Y-90166961D01*
X114472989Y-90121206D01*
X114524500Y-90110000D01*
X162475500Y-90110000D01*
X162542539Y-90129685D01*
G37*
G04 #@! TD.AperFunction*
M02*
