G04 #@! TF.GenerationSoftware,KiCad,Pcbnew,8.0.8*
G04 #@! TF.CreationDate,2025-05-02T10:21:30-04:00*
G04 #@! TF.ProjectId,esp32,65737033-322e-46b6-9963-61645f706362,rev?*
G04 #@! TF.SameCoordinates,Original*
G04 #@! TF.FileFunction,Paste,Top*
G04 #@! TF.FilePolarity,Positive*
%FSLAX46Y46*%
G04 Gerber Fmt 4.6, Leading zero omitted, Abs format (unit mm)*
G04 Created by KiCad (PCBNEW 8.0.8) date 2025-05-02 10:21:30*
%MOMM*%
%LPD*%
G01*
G04 APERTURE LIST*
G04 Aperture macros list*
%AMRoundRect*
0 Rectangle with rounded corners*
0 $1 Rounding radius*
0 $2 $3 $4 $5 $6 $7 $8 $9 X,Y pos of 4 corners*
0 Add a 4 corners polygon primitive as box body*
4,1,4,$2,$3,$4,$5,$6,$7,$8,$9,$2,$3,0*
0 Add four circle primitives for the rounded corners*
1,1,$1+$1,$2,$3*
1,1,$1+$1,$4,$5*
1,1,$1+$1,$6,$7*
1,1,$1+$1,$8,$9*
0 Add four rect primitives between the rounded corners*
20,1,$1+$1,$2,$3,$4,$5,0*
20,1,$1+$1,$4,$5,$6,$7,0*
20,1,$1+$1,$6,$7,$8,$9,0*
20,1,$1+$1,$8,$9,$2,$3,0*%
G04 Aperture macros list end*
%ADD10RoundRect,0.075000X-0.350000X-0.075000X0.350000X-0.075000X0.350000X0.075000X-0.350000X0.075000X0*%
%ADD11RoundRect,0.075000X0.075000X-0.350000X0.075000X0.350000X-0.075000X0.350000X-0.075000X-0.350000X0*%
%ADD12R,1.500000X0.900000*%
%ADD13R,0.900000X1.500000*%
%ADD14R,1.050000X1.050000*%
G04 APERTURE END LIST*
D10*
X153850000Y-102750000D03*
X153850000Y-103250000D03*
X153850000Y-103750000D03*
X153850000Y-104250000D03*
X153850000Y-104750000D03*
X153850000Y-105250000D03*
D11*
X154550000Y-105950000D03*
X155050000Y-105950000D03*
X155550000Y-105950000D03*
X156050000Y-105950000D03*
X156550000Y-105950000D03*
X157050000Y-105950000D03*
D10*
X157750000Y-105250000D03*
X157750000Y-104750000D03*
X157750000Y-104250000D03*
X157750000Y-103750000D03*
X157750000Y-103250000D03*
X157750000Y-102750000D03*
D11*
X157050000Y-102050000D03*
X156550000Y-102050000D03*
X156050000Y-102050000D03*
X155550000Y-102050000D03*
X155050000Y-102050000D03*
X154550000Y-102050000D03*
D12*
X129692500Y-91660000D03*
X129692500Y-92930000D03*
X129692500Y-94200000D03*
X129692500Y-95470000D03*
X129692500Y-96740000D03*
X129692500Y-98010000D03*
X129692500Y-99280000D03*
X129692500Y-100550000D03*
X129692500Y-101820000D03*
X129692500Y-103090000D03*
X129692500Y-104360000D03*
X129692500Y-105630000D03*
X129692500Y-106900000D03*
X129692500Y-108170000D03*
D13*
X132732500Y-109420000D03*
X134002500Y-109420000D03*
X135272500Y-109420000D03*
X136542500Y-109420000D03*
X137812500Y-109420000D03*
X139082500Y-109420000D03*
X140352500Y-109420000D03*
X141622500Y-109420000D03*
X142892500Y-109420000D03*
X144162500Y-109420000D03*
D12*
X147192500Y-108170000D03*
X147192500Y-106900000D03*
X147192500Y-105630000D03*
X147192500Y-104360000D03*
X147192500Y-103090000D03*
X147192500Y-101820000D03*
X147192500Y-100550000D03*
X147192500Y-99280000D03*
X147192500Y-98010000D03*
X147192500Y-96740000D03*
X147192500Y-95470000D03*
X147192500Y-94200000D03*
X147192500Y-92930000D03*
X147192500Y-91660000D03*
D14*
X136237500Y-97475000D03*
X136237500Y-99000000D03*
X136237500Y-100525000D03*
X137762500Y-97475000D03*
X137762500Y-99000000D03*
X137762500Y-100525000D03*
X139287500Y-97475000D03*
X139287500Y-99000000D03*
X139287500Y-100525000D03*
M02*
