%TF.GenerationSoftware,KiCad,Pcbnew,8.0.8*%
%TF.CreationDate,2025-05-02T10:20:33-04:00*%
%TF.ProjectId,esp32,65737033-322e-46b6-9963-61645f706362,rev?*%
%TF.SameCoordinates,Original*%
%TF.FileFunction,Drillmap*%
%TF.FilePolarity,Positive*%
%FSLAX45Y45*%
G04 Gerber Fmt 4.5, Leading zero omitted, Abs format (unit mm)*
G04 Created by KiCad (PCBNEW 8.0.8) date 2025-05-02 10:20:33*
%MOMM*%
%LPD*%
G01*
G04 APERTURE LIST*
%ADD10C,0.038100*%
%ADD11C,0.200000*%
%ADD12C,0.100000*%
G04 APERTURE END LIST*
D10*
X11390000Y-11150000D02*
X16310000Y-11150000D01*
X11440000Y-6810000D02*
X11390000Y-6850000D01*
X11390000Y-6850000D02*
X11390000Y-11150000D01*
X16310000Y-6810000D02*
X11440000Y-6810000D01*
X16310000Y-11150000D02*
X16310000Y-6810000D01*
D11*
D12*
X13613750Y-9813750D02*
X13633750Y-9833750D01*
X13633750Y-9813750D02*
X13613750Y-9833750D01*
X13613750Y-9966250D02*
X13633750Y-9986250D01*
X13633750Y-9966250D02*
X13613750Y-9986250D01*
X13690000Y-9737500D02*
X13710000Y-9757500D01*
X13710000Y-9737500D02*
X13690000Y-9757500D01*
X13690000Y-9890000D02*
X13710000Y-9910000D01*
X13710000Y-9890000D02*
X13690000Y-9910000D01*
X13690000Y-10042500D02*
X13710000Y-10062500D01*
X13710000Y-10042500D02*
X13690000Y-10062500D01*
X13766250Y-9813750D02*
X13786250Y-9833750D01*
X13786250Y-9813750D02*
X13766250Y-9833750D01*
X13766250Y-9966250D02*
X13786250Y-9986250D01*
X13786250Y-9966250D02*
X13766250Y-9986250D01*
X13842500Y-9737500D02*
X13862500Y-9757500D01*
X13862500Y-9737500D02*
X13842500Y-9757500D01*
X13842500Y-9890000D02*
X13862500Y-9910000D01*
X13862500Y-9890000D02*
X13842500Y-9910000D01*
X13842500Y-10042500D02*
X13862500Y-10062500D01*
X13862500Y-10042500D02*
X13842500Y-10062500D01*
X13918750Y-9813750D02*
X13938750Y-9833750D01*
X13938750Y-9813750D02*
X13918750Y-9833750D01*
X13918750Y-9966250D02*
X13938750Y-9986250D01*
X13938750Y-9966250D02*
X13918750Y-9986250D01*
X12645000Y-9370000D02*
G75*
G02*
X12615000Y-9370000I-15000J0D01*
G01*
X12615000Y-9370000D02*
G75*
G02*
X12645000Y-9370000I15000J0D01*
G01*
X14485000Y-10730000D02*
G75*
G02*
X14455000Y-10730000I-15000J0D01*
G01*
X14455000Y-10730000D02*
G75*
G02*
X14485000Y-10730000I15000J0D01*
G01*
X14985000Y-10040000D02*
G75*
G02*
X14955000Y-10040000I-15000J0D01*
G01*
X14955000Y-10040000D02*
G75*
G02*
X14985000Y-10040000I15000J0D01*
G01*
X15055000Y-9370000D02*
G75*
G02*
X15025000Y-9370000I-15000J0D01*
G01*
X15025000Y-9370000D02*
G75*
G02*
X15055000Y-9370000I15000J0D01*
G01*
X15235000Y-9890000D02*
G75*
G02*
X15205000Y-9890000I-15000J0D01*
G01*
X15205000Y-9890000D02*
G75*
G02*
X15235000Y-9890000I15000J0D01*
G01*
X15445000Y-10050000D02*
G75*
G02*
X15415000Y-10050000I-15000J0D01*
G01*
X15415000Y-10050000D02*
G75*
G02*
X15445000Y-10050000I15000J0D01*
G01*
X15665000Y-9900000D02*
G75*
G02*
X15635000Y-9900000I-15000J0D01*
G01*
X15635000Y-9900000D02*
G75*
G02*
X15665000Y-9900000I15000J0D01*
G01*
X15905000Y-10730000D02*
G75*
G02*
X15875000Y-10730000I-15000J0D01*
G01*
X15875000Y-10730000D02*
G75*
G02*
X15905000Y-10730000I15000J0D01*
G01*
X15219000Y-9360000D02*
X15219000Y-9440000D01*
X15179000Y-9400000D02*
X15259000Y-9400000D01*
X15981000Y-9360000D02*
X15981000Y-9440000D01*
X15941000Y-9400000D02*
X16021000Y-9400000D01*
X11755356Y-9935356D02*
X11755356Y-9864644D01*
X11684644Y-9864644D01*
X11684644Y-9935356D01*
X11755356Y-9935356D01*
X12515356Y-9935356D02*
X12515356Y-9864644D01*
X12444644Y-9864644D01*
X12444644Y-9935356D01*
X12515356Y-9935356D01*
D11*
X11648872Y-11463389D02*
X11648872Y-11263389D01*
X11648872Y-11263389D02*
X11696491Y-11263389D01*
X11696491Y-11263389D02*
X11725062Y-11272913D01*
X11725062Y-11272913D02*
X11744110Y-11291960D01*
X11744110Y-11291960D02*
X11753634Y-11311008D01*
X11753634Y-11311008D02*
X11763157Y-11349103D01*
X11763157Y-11349103D02*
X11763157Y-11377674D01*
X11763157Y-11377674D02*
X11753634Y-11415770D01*
X11753634Y-11415770D02*
X11744110Y-11434817D01*
X11744110Y-11434817D02*
X11725062Y-11453865D01*
X11725062Y-11453865D02*
X11696491Y-11463389D01*
X11696491Y-11463389D02*
X11648872Y-11463389D01*
X11848872Y-11463389D02*
X11848872Y-11330055D01*
X11848872Y-11368151D02*
X11858396Y-11349103D01*
X11858396Y-11349103D02*
X11867919Y-11339579D01*
X11867919Y-11339579D02*
X11886967Y-11330055D01*
X11886967Y-11330055D02*
X11906015Y-11330055D01*
X11972681Y-11463389D02*
X11972681Y-11330055D01*
X11972681Y-11263389D02*
X11963157Y-11272913D01*
X11963157Y-11272913D02*
X11972681Y-11282436D01*
X11972681Y-11282436D02*
X11982205Y-11272913D01*
X11982205Y-11272913D02*
X11972681Y-11263389D01*
X11972681Y-11263389D02*
X11972681Y-11282436D01*
X12096491Y-11463389D02*
X12077443Y-11453865D01*
X12077443Y-11453865D02*
X12067919Y-11434817D01*
X12067919Y-11434817D02*
X12067919Y-11263389D01*
X12201253Y-11463389D02*
X12182205Y-11453865D01*
X12182205Y-11453865D02*
X12172681Y-11434817D01*
X12172681Y-11434817D02*
X12172681Y-11263389D01*
X12429824Y-11463389D02*
X12429824Y-11263389D01*
X12429824Y-11263389D02*
X12496491Y-11406246D01*
X12496491Y-11406246D02*
X12563157Y-11263389D01*
X12563157Y-11263389D02*
X12563157Y-11463389D01*
X12744110Y-11463389D02*
X12744110Y-11358627D01*
X12744110Y-11358627D02*
X12734586Y-11339579D01*
X12734586Y-11339579D02*
X12715538Y-11330055D01*
X12715538Y-11330055D02*
X12677443Y-11330055D01*
X12677443Y-11330055D02*
X12658396Y-11339579D01*
X12744110Y-11453865D02*
X12725062Y-11463389D01*
X12725062Y-11463389D02*
X12677443Y-11463389D01*
X12677443Y-11463389D02*
X12658396Y-11453865D01*
X12658396Y-11453865D02*
X12648872Y-11434817D01*
X12648872Y-11434817D02*
X12648872Y-11415770D01*
X12648872Y-11415770D02*
X12658396Y-11396722D01*
X12658396Y-11396722D02*
X12677443Y-11387198D01*
X12677443Y-11387198D02*
X12725062Y-11387198D01*
X12725062Y-11387198D02*
X12744110Y-11377674D01*
X12839348Y-11330055D02*
X12839348Y-11530055D01*
X12839348Y-11339579D02*
X12858396Y-11330055D01*
X12858396Y-11330055D02*
X12896491Y-11330055D01*
X12896491Y-11330055D02*
X12915538Y-11339579D01*
X12915538Y-11339579D02*
X12925062Y-11349103D01*
X12925062Y-11349103D02*
X12934586Y-11368151D01*
X12934586Y-11368151D02*
X12934586Y-11425293D01*
X12934586Y-11425293D02*
X12925062Y-11444341D01*
X12925062Y-11444341D02*
X12915538Y-11453865D01*
X12915538Y-11453865D02*
X12896491Y-11463389D01*
X12896491Y-11463389D02*
X12858396Y-11463389D01*
X12858396Y-11463389D02*
X12839348Y-11453865D01*
X13020300Y-11444341D02*
X13029824Y-11453865D01*
X13029824Y-11453865D02*
X13020300Y-11463389D01*
X13020300Y-11463389D02*
X13010777Y-11453865D01*
X13010777Y-11453865D02*
X13020300Y-11444341D01*
X13020300Y-11444341D02*
X13020300Y-11463389D01*
X13020300Y-11339579D02*
X13029824Y-11349103D01*
X13029824Y-11349103D02*
X13020300Y-11358627D01*
X13020300Y-11358627D02*
X13010777Y-11349103D01*
X13010777Y-11349103D02*
X13020300Y-11339579D01*
X13020300Y-11339579D02*
X13020300Y-11358627D01*
D12*
X11368095Y-11781905D02*
X11388095Y-11801905D01*
X11388095Y-11781905D02*
X11368095Y-11801905D01*
D11*
X11686967Y-11683389D02*
X11706015Y-11683389D01*
X11706015Y-11683389D02*
X11725062Y-11692913D01*
X11725062Y-11692913D02*
X11734586Y-11702436D01*
X11734586Y-11702436D02*
X11744110Y-11721484D01*
X11744110Y-11721484D02*
X11753634Y-11759579D01*
X11753634Y-11759579D02*
X11753634Y-11807198D01*
X11753634Y-11807198D02*
X11744110Y-11845293D01*
X11744110Y-11845293D02*
X11734586Y-11864341D01*
X11734586Y-11864341D02*
X11725062Y-11873865D01*
X11725062Y-11873865D02*
X11706015Y-11883389D01*
X11706015Y-11883389D02*
X11686967Y-11883389D01*
X11686967Y-11883389D02*
X11667919Y-11873865D01*
X11667919Y-11873865D02*
X11658396Y-11864341D01*
X11658396Y-11864341D02*
X11648872Y-11845293D01*
X11648872Y-11845293D02*
X11639348Y-11807198D01*
X11639348Y-11807198D02*
X11639348Y-11759579D01*
X11639348Y-11759579D02*
X11648872Y-11721484D01*
X11648872Y-11721484D02*
X11658396Y-11702436D01*
X11658396Y-11702436D02*
X11667919Y-11692913D01*
X11667919Y-11692913D02*
X11686967Y-11683389D01*
X11839348Y-11864341D02*
X11848872Y-11873865D01*
X11848872Y-11873865D02*
X11839348Y-11883389D01*
X11839348Y-11883389D02*
X11829824Y-11873865D01*
X11829824Y-11873865D02*
X11839348Y-11864341D01*
X11839348Y-11864341D02*
X11839348Y-11883389D01*
X11925062Y-11702436D02*
X11934586Y-11692913D01*
X11934586Y-11692913D02*
X11953634Y-11683389D01*
X11953634Y-11683389D02*
X12001253Y-11683389D01*
X12001253Y-11683389D02*
X12020300Y-11692913D01*
X12020300Y-11692913D02*
X12029824Y-11702436D01*
X12029824Y-11702436D02*
X12039348Y-11721484D01*
X12039348Y-11721484D02*
X12039348Y-11740532D01*
X12039348Y-11740532D02*
X12029824Y-11769103D01*
X12029824Y-11769103D02*
X11915538Y-11883389D01*
X11915538Y-11883389D02*
X12039348Y-11883389D01*
X12163157Y-11683389D02*
X12182205Y-11683389D01*
X12182205Y-11683389D02*
X12201253Y-11692913D01*
X12201253Y-11692913D02*
X12210777Y-11702436D01*
X12210777Y-11702436D02*
X12220300Y-11721484D01*
X12220300Y-11721484D02*
X12229824Y-11759579D01*
X12229824Y-11759579D02*
X12229824Y-11807198D01*
X12229824Y-11807198D02*
X12220300Y-11845293D01*
X12220300Y-11845293D02*
X12210777Y-11864341D01*
X12210777Y-11864341D02*
X12201253Y-11873865D01*
X12201253Y-11873865D02*
X12182205Y-11883389D01*
X12182205Y-11883389D02*
X12163157Y-11883389D01*
X12163157Y-11883389D02*
X12144110Y-11873865D01*
X12144110Y-11873865D02*
X12134586Y-11864341D01*
X12134586Y-11864341D02*
X12125062Y-11845293D01*
X12125062Y-11845293D02*
X12115538Y-11807198D01*
X12115538Y-11807198D02*
X12115538Y-11759579D01*
X12115538Y-11759579D02*
X12125062Y-11721484D01*
X12125062Y-11721484D02*
X12134586Y-11702436D01*
X12134586Y-11702436D02*
X12144110Y-11692913D01*
X12144110Y-11692913D02*
X12163157Y-11683389D01*
X12353634Y-11683389D02*
X12372681Y-11683389D01*
X12372681Y-11683389D02*
X12391729Y-11692913D01*
X12391729Y-11692913D02*
X12401253Y-11702436D01*
X12401253Y-11702436D02*
X12410777Y-11721484D01*
X12410777Y-11721484D02*
X12420300Y-11759579D01*
X12420300Y-11759579D02*
X12420300Y-11807198D01*
X12420300Y-11807198D02*
X12410777Y-11845293D01*
X12410777Y-11845293D02*
X12401253Y-11864341D01*
X12401253Y-11864341D02*
X12391729Y-11873865D01*
X12391729Y-11873865D02*
X12372681Y-11883389D01*
X12372681Y-11883389D02*
X12353634Y-11883389D01*
X12353634Y-11883389D02*
X12334586Y-11873865D01*
X12334586Y-11873865D02*
X12325062Y-11864341D01*
X12325062Y-11864341D02*
X12315538Y-11845293D01*
X12315538Y-11845293D02*
X12306015Y-11807198D01*
X12306015Y-11807198D02*
X12306015Y-11759579D01*
X12306015Y-11759579D02*
X12315538Y-11721484D01*
X12315538Y-11721484D02*
X12325062Y-11702436D01*
X12325062Y-11702436D02*
X12334586Y-11692913D01*
X12334586Y-11692913D02*
X12353634Y-11683389D01*
X12506015Y-11883389D02*
X12506015Y-11750055D01*
X12506015Y-11769103D02*
X12515538Y-11759579D01*
X12515538Y-11759579D02*
X12534586Y-11750055D01*
X12534586Y-11750055D02*
X12563158Y-11750055D01*
X12563158Y-11750055D02*
X12582205Y-11759579D01*
X12582205Y-11759579D02*
X12591729Y-11778627D01*
X12591729Y-11778627D02*
X12591729Y-11883389D01*
X12591729Y-11778627D02*
X12601253Y-11759579D01*
X12601253Y-11759579D02*
X12620300Y-11750055D01*
X12620300Y-11750055D02*
X12648872Y-11750055D01*
X12648872Y-11750055D02*
X12667919Y-11759579D01*
X12667919Y-11759579D02*
X12677443Y-11778627D01*
X12677443Y-11778627D02*
X12677443Y-11883389D01*
X12772681Y-11883389D02*
X12772681Y-11750055D01*
X12772681Y-11769103D02*
X12782205Y-11759579D01*
X12782205Y-11759579D02*
X12801253Y-11750055D01*
X12801253Y-11750055D02*
X12829824Y-11750055D01*
X12829824Y-11750055D02*
X12848872Y-11759579D01*
X12848872Y-11759579D02*
X12858396Y-11778627D01*
X12858396Y-11778627D02*
X12858396Y-11883389D01*
X12858396Y-11778627D02*
X12867919Y-11759579D01*
X12867919Y-11759579D02*
X12886967Y-11750055D01*
X12886967Y-11750055D02*
X12915538Y-11750055D01*
X12915538Y-11750055D02*
X12934586Y-11759579D01*
X12934586Y-11759579D02*
X12944110Y-11778627D01*
X12944110Y-11778627D02*
X12944110Y-11883389D01*
X13334586Y-11673865D02*
X13163158Y-11931008D01*
X13591729Y-11683389D02*
X13610777Y-11683389D01*
X13610777Y-11683389D02*
X13629824Y-11692913D01*
X13629824Y-11692913D02*
X13639348Y-11702436D01*
X13639348Y-11702436D02*
X13648872Y-11721484D01*
X13648872Y-11721484D02*
X13658396Y-11759579D01*
X13658396Y-11759579D02*
X13658396Y-11807198D01*
X13658396Y-11807198D02*
X13648872Y-11845293D01*
X13648872Y-11845293D02*
X13639348Y-11864341D01*
X13639348Y-11864341D02*
X13629824Y-11873865D01*
X13629824Y-11873865D02*
X13610777Y-11883389D01*
X13610777Y-11883389D02*
X13591729Y-11883389D01*
X13591729Y-11883389D02*
X13572681Y-11873865D01*
X13572681Y-11873865D02*
X13563158Y-11864341D01*
X13563158Y-11864341D02*
X13553634Y-11845293D01*
X13553634Y-11845293D02*
X13544110Y-11807198D01*
X13544110Y-11807198D02*
X13544110Y-11759579D01*
X13544110Y-11759579D02*
X13553634Y-11721484D01*
X13553634Y-11721484D02*
X13563158Y-11702436D01*
X13563158Y-11702436D02*
X13572681Y-11692913D01*
X13572681Y-11692913D02*
X13591729Y-11683389D01*
X13744110Y-11864341D02*
X13753634Y-11873865D01*
X13753634Y-11873865D02*
X13744110Y-11883389D01*
X13744110Y-11883389D02*
X13734586Y-11873865D01*
X13734586Y-11873865D02*
X13744110Y-11864341D01*
X13744110Y-11864341D02*
X13744110Y-11883389D01*
X13877443Y-11683389D02*
X13896491Y-11683389D01*
X13896491Y-11683389D02*
X13915539Y-11692913D01*
X13915539Y-11692913D02*
X13925062Y-11702436D01*
X13925062Y-11702436D02*
X13934586Y-11721484D01*
X13934586Y-11721484D02*
X13944110Y-11759579D01*
X13944110Y-11759579D02*
X13944110Y-11807198D01*
X13944110Y-11807198D02*
X13934586Y-11845293D01*
X13934586Y-11845293D02*
X13925062Y-11864341D01*
X13925062Y-11864341D02*
X13915539Y-11873865D01*
X13915539Y-11873865D02*
X13896491Y-11883389D01*
X13896491Y-11883389D02*
X13877443Y-11883389D01*
X13877443Y-11883389D02*
X13858396Y-11873865D01*
X13858396Y-11873865D02*
X13848872Y-11864341D01*
X13848872Y-11864341D02*
X13839348Y-11845293D01*
X13839348Y-11845293D02*
X13829824Y-11807198D01*
X13829824Y-11807198D02*
X13829824Y-11759579D01*
X13829824Y-11759579D02*
X13839348Y-11721484D01*
X13839348Y-11721484D02*
X13848872Y-11702436D01*
X13848872Y-11702436D02*
X13858396Y-11692913D01*
X13858396Y-11692913D02*
X13877443Y-11683389D01*
X14067920Y-11683389D02*
X14086967Y-11683389D01*
X14086967Y-11683389D02*
X14106015Y-11692913D01*
X14106015Y-11692913D02*
X14115539Y-11702436D01*
X14115539Y-11702436D02*
X14125062Y-11721484D01*
X14125062Y-11721484D02*
X14134586Y-11759579D01*
X14134586Y-11759579D02*
X14134586Y-11807198D01*
X14134586Y-11807198D02*
X14125062Y-11845293D01*
X14125062Y-11845293D02*
X14115539Y-11864341D01*
X14115539Y-11864341D02*
X14106015Y-11873865D01*
X14106015Y-11873865D02*
X14086967Y-11883389D01*
X14086967Y-11883389D02*
X14067920Y-11883389D01*
X14067920Y-11883389D02*
X14048872Y-11873865D01*
X14048872Y-11873865D02*
X14039348Y-11864341D01*
X14039348Y-11864341D02*
X14029824Y-11845293D01*
X14029824Y-11845293D02*
X14020301Y-11807198D01*
X14020301Y-11807198D02*
X14020301Y-11759579D01*
X14020301Y-11759579D02*
X14029824Y-11721484D01*
X14029824Y-11721484D02*
X14039348Y-11702436D01*
X14039348Y-11702436D02*
X14048872Y-11692913D01*
X14048872Y-11692913D02*
X14067920Y-11683389D01*
X14201253Y-11683389D02*
X14334586Y-11683389D01*
X14334586Y-11683389D02*
X14248872Y-11883389D01*
X14420301Y-11883389D02*
X14458396Y-11883389D01*
X14458396Y-11883389D02*
X14477443Y-11873865D01*
X14477443Y-11873865D02*
X14486967Y-11864341D01*
X14486967Y-11864341D02*
X14506015Y-11835770D01*
X14506015Y-11835770D02*
X14515539Y-11797674D01*
X14515539Y-11797674D02*
X14515539Y-11721484D01*
X14515539Y-11721484D02*
X14506015Y-11702436D01*
X14506015Y-11702436D02*
X14496491Y-11692913D01*
X14496491Y-11692913D02*
X14477443Y-11683389D01*
X14477443Y-11683389D02*
X14439348Y-11683389D01*
X14439348Y-11683389D02*
X14420301Y-11692913D01*
X14420301Y-11692913D02*
X14410777Y-11702436D01*
X14410777Y-11702436D02*
X14401253Y-11721484D01*
X14401253Y-11721484D02*
X14401253Y-11769103D01*
X14401253Y-11769103D02*
X14410777Y-11788151D01*
X14410777Y-11788151D02*
X14420301Y-11797674D01*
X14420301Y-11797674D02*
X14439348Y-11807198D01*
X14439348Y-11807198D02*
X14477443Y-11807198D01*
X14477443Y-11807198D02*
X14496491Y-11797674D01*
X14496491Y-11797674D02*
X14506015Y-11788151D01*
X14506015Y-11788151D02*
X14515539Y-11769103D01*
X14591729Y-11683389D02*
X14591729Y-11721484D01*
X14667920Y-11683389D02*
X14667920Y-11721484D01*
X14963158Y-11959579D02*
X14953634Y-11950055D01*
X14953634Y-11950055D02*
X14934586Y-11921484D01*
X14934586Y-11921484D02*
X14925063Y-11902436D01*
X14925063Y-11902436D02*
X14915539Y-11873865D01*
X14915539Y-11873865D02*
X14906015Y-11826246D01*
X14906015Y-11826246D02*
X14906015Y-11788151D01*
X14906015Y-11788151D02*
X14915539Y-11740532D01*
X14915539Y-11740532D02*
X14925063Y-11711960D01*
X14925063Y-11711960D02*
X14934586Y-11692913D01*
X14934586Y-11692913D02*
X14953634Y-11664341D01*
X14953634Y-11664341D02*
X14963158Y-11654817D01*
X15144110Y-11883389D02*
X15029824Y-11883389D01*
X15086967Y-11883389D02*
X15086967Y-11683389D01*
X15086967Y-11683389D02*
X15067920Y-11711960D01*
X15067920Y-11711960D02*
X15048872Y-11731008D01*
X15048872Y-11731008D02*
X15029824Y-11740532D01*
X15220301Y-11702436D02*
X15229824Y-11692913D01*
X15229824Y-11692913D02*
X15248872Y-11683389D01*
X15248872Y-11683389D02*
X15296491Y-11683389D01*
X15296491Y-11683389D02*
X15315539Y-11692913D01*
X15315539Y-11692913D02*
X15325063Y-11702436D01*
X15325063Y-11702436D02*
X15334586Y-11721484D01*
X15334586Y-11721484D02*
X15334586Y-11740532D01*
X15334586Y-11740532D02*
X15325063Y-11769103D01*
X15325063Y-11769103D02*
X15210777Y-11883389D01*
X15210777Y-11883389D02*
X15334586Y-11883389D01*
X15572682Y-11883389D02*
X15572682Y-11683389D01*
X15658396Y-11883389D02*
X15658396Y-11778627D01*
X15658396Y-11778627D02*
X15648872Y-11759579D01*
X15648872Y-11759579D02*
X15629825Y-11750055D01*
X15629825Y-11750055D02*
X15601253Y-11750055D01*
X15601253Y-11750055D02*
X15582205Y-11759579D01*
X15582205Y-11759579D02*
X15572682Y-11769103D01*
X15782205Y-11883389D02*
X15763158Y-11873865D01*
X15763158Y-11873865D02*
X15753634Y-11864341D01*
X15753634Y-11864341D02*
X15744110Y-11845293D01*
X15744110Y-11845293D02*
X15744110Y-11788151D01*
X15744110Y-11788151D02*
X15753634Y-11769103D01*
X15753634Y-11769103D02*
X15763158Y-11759579D01*
X15763158Y-11759579D02*
X15782205Y-11750055D01*
X15782205Y-11750055D02*
X15810777Y-11750055D01*
X15810777Y-11750055D02*
X15829825Y-11759579D01*
X15829825Y-11759579D02*
X15839348Y-11769103D01*
X15839348Y-11769103D02*
X15848872Y-11788151D01*
X15848872Y-11788151D02*
X15848872Y-11845293D01*
X15848872Y-11845293D02*
X15839348Y-11864341D01*
X15839348Y-11864341D02*
X15829825Y-11873865D01*
X15829825Y-11873865D02*
X15810777Y-11883389D01*
X15810777Y-11883389D02*
X15782205Y-11883389D01*
X15963158Y-11883389D02*
X15944110Y-11873865D01*
X15944110Y-11873865D02*
X15934586Y-11854817D01*
X15934586Y-11854817D02*
X15934586Y-11683389D01*
X16115539Y-11873865D02*
X16096491Y-11883389D01*
X16096491Y-11883389D02*
X16058396Y-11883389D01*
X16058396Y-11883389D02*
X16039348Y-11873865D01*
X16039348Y-11873865D02*
X16029825Y-11854817D01*
X16029825Y-11854817D02*
X16029825Y-11778627D01*
X16029825Y-11778627D02*
X16039348Y-11759579D01*
X16039348Y-11759579D02*
X16058396Y-11750055D01*
X16058396Y-11750055D02*
X16096491Y-11750055D01*
X16096491Y-11750055D02*
X16115539Y-11759579D01*
X16115539Y-11759579D02*
X16125063Y-11778627D01*
X16125063Y-11778627D02*
X16125063Y-11797674D01*
X16125063Y-11797674D02*
X16029825Y-11816722D01*
X16201253Y-11873865D02*
X16220301Y-11883389D01*
X16220301Y-11883389D02*
X16258396Y-11883389D01*
X16258396Y-11883389D02*
X16277444Y-11873865D01*
X16277444Y-11873865D02*
X16286967Y-11854817D01*
X16286967Y-11854817D02*
X16286967Y-11845293D01*
X16286967Y-11845293D02*
X16277444Y-11826246D01*
X16277444Y-11826246D02*
X16258396Y-11816722D01*
X16258396Y-11816722D02*
X16229825Y-11816722D01*
X16229825Y-11816722D02*
X16210777Y-11807198D01*
X16210777Y-11807198D02*
X16201253Y-11788151D01*
X16201253Y-11788151D02*
X16201253Y-11778627D01*
X16201253Y-11778627D02*
X16210777Y-11759579D01*
X16210777Y-11759579D02*
X16229825Y-11750055D01*
X16229825Y-11750055D02*
X16258396Y-11750055D01*
X16258396Y-11750055D02*
X16277444Y-11759579D01*
X16353634Y-11959579D02*
X16363158Y-11950055D01*
X16363158Y-11950055D02*
X16382206Y-11921484D01*
X16382206Y-11921484D02*
X16391729Y-11902436D01*
X16391729Y-11902436D02*
X16401253Y-11873865D01*
X16401253Y-11873865D02*
X16410777Y-11826246D01*
X16410777Y-11826246D02*
X16410777Y-11788151D01*
X16410777Y-11788151D02*
X16401253Y-11740532D01*
X16401253Y-11740532D02*
X16391729Y-11711960D01*
X16391729Y-11711960D02*
X16382206Y-11692913D01*
X16382206Y-11692913D02*
X16363158Y-11664341D01*
X16363158Y-11664341D02*
X16353634Y-11654817D01*
D12*
X11388095Y-12055905D02*
G75*
G02*
X11358095Y-12055905I-15000J0D01*
G01*
X11358095Y-12055905D02*
G75*
G02*
X11388095Y-12055905I15000J0D01*
G01*
D11*
X11686967Y-11947389D02*
X11706015Y-11947389D01*
X11706015Y-11947389D02*
X11725062Y-11956913D01*
X11725062Y-11956913D02*
X11734586Y-11966436D01*
X11734586Y-11966436D02*
X11744110Y-11985484D01*
X11744110Y-11985484D02*
X11753634Y-12023579D01*
X11753634Y-12023579D02*
X11753634Y-12071198D01*
X11753634Y-12071198D02*
X11744110Y-12109293D01*
X11744110Y-12109293D02*
X11734586Y-12128341D01*
X11734586Y-12128341D02*
X11725062Y-12137865D01*
X11725062Y-12137865D02*
X11706015Y-12147389D01*
X11706015Y-12147389D02*
X11686967Y-12147389D01*
X11686967Y-12147389D02*
X11667919Y-12137865D01*
X11667919Y-12137865D02*
X11658396Y-12128341D01*
X11658396Y-12128341D02*
X11648872Y-12109293D01*
X11648872Y-12109293D02*
X11639348Y-12071198D01*
X11639348Y-12071198D02*
X11639348Y-12023579D01*
X11639348Y-12023579D02*
X11648872Y-11985484D01*
X11648872Y-11985484D02*
X11658396Y-11966436D01*
X11658396Y-11966436D02*
X11667919Y-11956913D01*
X11667919Y-11956913D02*
X11686967Y-11947389D01*
X11839348Y-12128341D02*
X11848872Y-12137865D01*
X11848872Y-12137865D02*
X11839348Y-12147389D01*
X11839348Y-12147389D02*
X11829824Y-12137865D01*
X11829824Y-12137865D02*
X11839348Y-12128341D01*
X11839348Y-12128341D02*
X11839348Y-12147389D01*
X11915538Y-11947389D02*
X12039348Y-11947389D01*
X12039348Y-11947389D02*
X11972681Y-12023579D01*
X11972681Y-12023579D02*
X12001253Y-12023579D01*
X12001253Y-12023579D02*
X12020300Y-12033103D01*
X12020300Y-12033103D02*
X12029824Y-12042627D01*
X12029824Y-12042627D02*
X12039348Y-12061674D01*
X12039348Y-12061674D02*
X12039348Y-12109293D01*
X12039348Y-12109293D02*
X12029824Y-12128341D01*
X12029824Y-12128341D02*
X12020300Y-12137865D01*
X12020300Y-12137865D02*
X12001253Y-12147389D01*
X12001253Y-12147389D02*
X11944110Y-12147389D01*
X11944110Y-12147389D02*
X11925062Y-12137865D01*
X11925062Y-12137865D02*
X11915538Y-12128341D01*
X12163157Y-11947389D02*
X12182205Y-11947389D01*
X12182205Y-11947389D02*
X12201253Y-11956913D01*
X12201253Y-11956913D02*
X12210777Y-11966436D01*
X12210777Y-11966436D02*
X12220300Y-11985484D01*
X12220300Y-11985484D02*
X12229824Y-12023579D01*
X12229824Y-12023579D02*
X12229824Y-12071198D01*
X12229824Y-12071198D02*
X12220300Y-12109293D01*
X12220300Y-12109293D02*
X12210777Y-12128341D01*
X12210777Y-12128341D02*
X12201253Y-12137865D01*
X12201253Y-12137865D02*
X12182205Y-12147389D01*
X12182205Y-12147389D02*
X12163157Y-12147389D01*
X12163157Y-12147389D02*
X12144110Y-12137865D01*
X12144110Y-12137865D02*
X12134586Y-12128341D01*
X12134586Y-12128341D02*
X12125062Y-12109293D01*
X12125062Y-12109293D02*
X12115538Y-12071198D01*
X12115538Y-12071198D02*
X12115538Y-12023579D01*
X12115538Y-12023579D02*
X12125062Y-11985484D01*
X12125062Y-11985484D02*
X12134586Y-11966436D01*
X12134586Y-11966436D02*
X12144110Y-11956913D01*
X12144110Y-11956913D02*
X12163157Y-11947389D01*
X12353634Y-11947389D02*
X12372681Y-11947389D01*
X12372681Y-11947389D02*
X12391729Y-11956913D01*
X12391729Y-11956913D02*
X12401253Y-11966436D01*
X12401253Y-11966436D02*
X12410777Y-11985484D01*
X12410777Y-11985484D02*
X12420300Y-12023579D01*
X12420300Y-12023579D02*
X12420300Y-12071198D01*
X12420300Y-12071198D02*
X12410777Y-12109293D01*
X12410777Y-12109293D02*
X12401253Y-12128341D01*
X12401253Y-12128341D02*
X12391729Y-12137865D01*
X12391729Y-12137865D02*
X12372681Y-12147389D01*
X12372681Y-12147389D02*
X12353634Y-12147389D01*
X12353634Y-12147389D02*
X12334586Y-12137865D01*
X12334586Y-12137865D02*
X12325062Y-12128341D01*
X12325062Y-12128341D02*
X12315538Y-12109293D01*
X12315538Y-12109293D02*
X12306015Y-12071198D01*
X12306015Y-12071198D02*
X12306015Y-12023579D01*
X12306015Y-12023579D02*
X12315538Y-11985484D01*
X12315538Y-11985484D02*
X12325062Y-11966436D01*
X12325062Y-11966436D02*
X12334586Y-11956913D01*
X12334586Y-11956913D02*
X12353634Y-11947389D01*
X12506015Y-12147389D02*
X12506015Y-12014055D01*
X12506015Y-12033103D02*
X12515538Y-12023579D01*
X12515538Y-12023579D02*
X12534586Y-12014055D01*
X12534586Y-12014055D02*
X12563158Y-12014055D01*
X12563158Y-12014055D02*
X12582205Y-12023579D01*
X12582205Y-12023579D02*
X12591729Y-12042627D01*
X12591729Y-12042627D02*
X12591729Y-12147389D01*
X12591729Y-12042627D02*
X12601253Y-12023579D01*
X12601253Y-12023579D02*
X12620300Y-12014055D01*
X12620300Y-12014055D02*
X12648872Y-12014055D01*
X12648872Y-12014055D02*
X12667919Y-12023579D01*
X12667919Y-12023579D02*
X12677443Y-12042627D01*
X12677443Y-12042627D02*
X12677443Y-12147389D01*
X12772681Y-12147389D02*
X12772681Y-12014055D01*
X12772681Y-12033103D02*
X12782205Y-12023579D01*
X12782205Y-12023579D02*
X12801253Y-12014055D01*
X12801253Y-12014055D02*
X12829824Y-12014055D01*
X12829824Y-12014055D02*
X12848872Y-12023579D01*
X12848872Y-12023579D02*
X12858396Y-12042627D01*
X12858396Y-12042627D02*
X12858396Y-12147389D01*
X12858396Y-12042627D02*
X12867919Y-12023579D01*
X12867919Y-12023579D02*
X12886967Y-12014055D01*
X12886967Y-12014055D02*
X12915538Y-12014055D01*
X12915538Y-12014055D02*
X12934586Y-12023579D01*
X12934586Y-12023579D02*
X12944110Y-12042627D01*
X12944110Y-12042627D02*
X12944110Y-12147389D01*
X13334586Y-11937865D02*
X13163158Y-12195008D01*
X13591729Y-11947389D02*
X13610777Y-11947389D01*
X13610777Y-11947389D02*
X13629824Y-11956913D01*
X13629824Y-11956913D02*
X13639348Y-11966436D01*
X13639348Y-11966436D02*
X13648872Y-11985484D01*
X13648872Y-11985484D02*
X13658396Y-12023579D01*
X13658396Y-12023579D02*
X13658396Y-12071198D01*
X13658396Y-12071198D02*
X13648872Y-12109293D01*
X13648872Y-12109293D02*
X13639348Y-12128341D01*
X13639348Y-12128341D02*
X13629824Y-12137865D01*
X13629824Y-12137865D02*
X13610777Y-12147389D01*
X13610777Y-12147389D02*
X13591729Y-12147389D01*
X13591729Y-12147389D02*
X13572681Y-12137865D01*
X13572681Y-12137865D02*
X13563158Y-12128341D01*
X13563158Y-12128341D02*
X13553634Y-12109293D01*
X13553634Y-12109293D02*
X13544110Y-12071198D01*
X13544110Y-12071198D02*
X13544110Y-12023579D01*
X13544110Y-12023579D02*
X13553634Y-11985484D01*
X13553634Y-11985484D02*
X13563158Y-11966436D01*
X13563158Y-11966436D02*
X13572681Y-11956913D01*
X13572681Y-11956913D02*
X13591729Y-11947389D01*
X13744110Y-12128341D02*
X13753634Y-12137865D01*
X13753634Y-12137865D02*
X13744110Y-12147389D01*
X13744110Y-12147389D02*
X13734586Y-12137865D01*
X13734586Y-12137865D02*
X13744110Y-12128341D01*
X13744110Y-12128341D02*
X13744110Y-12147389D01*
X13877443Y-11947389D02*
X13896491Y-11947389D01*
X13896491Y-11947389D02*
X13915539Y-11956913D01*
X13915539Y-11956913D02*
X13925062Y-11966436D01*
X13925062Y-11966436D02*
X13934586Y-11985484D01*
X13934586Y-11985484D02*
X13944110Y-12023579D01*
X13944110Y-12023579D02*
X13944110Y-12071198D01*
X13944110Y-12071198D02*
X13934586Y-12109293D01*
X13934586Y-12109293D02*
X13925062Y-12128341D01*
X13925062Y-12128341D02*
X13915539Y-12137865D01*
X13915539Y-12137865D02*
X13896491Y-12147389D01*
X13896491Y-12147389D02*
X13877443Y-12147389D01*
X13877443Y-12147389D02*
X13858396Y-12137865D01*
X13858396Y-12137865D02*
X13848872Y-12128341D01*
X13848872Y-12128341D02*
X13839348Y-12109293D01*
X13839348Y-12109293D02*
X13829824Y-12071198D01*
X13829824Y-12071198D02*
X13829824Y-12023579D01*
X13829824Y-12023579D02*
X13839348Y-11985484D01*
X13839348Y-11985484D02*
X13848872Y-11966436D01*
X13848872Y-11966436D02*
X13858396Y-11956913D01*
X13858396Y-11956913D02*
X13877443Y-11947389D01*
X14134586Y-12147389D02*
X14020301Y-12147389D01*
X14077443Y-12147389D02*
X14077443Y-11947389D01*
X14077443Y-11947389D02*
X14058396Y-11975960D01*
X14058396Y-11975960D02*
X14039348Y-11995008D01*
X14039348Y-11995008D02*
X14020301Y-12004532D01*
X14325062Y-12147389D02*
X14210777Y-12147389D01*
X14267920Y-12147389D02*
X14267920Y-11947389D01*
X14267920Y-11947389D02*
X14248872Y-11975960D01*
X14248872Y-11975960D02*
X14229824Y-11995008D01*
X14229824Y-11995008D02*
X14210777Y-12004532D01*
X14439348Y-12033103D02*
X14420301Y-12023579D01*
X14420301Y-12023579D02*
X14410777Y-12014055D01*
X14410777Y-12014055D02*
X14401253Y-11995008D01*
X14401253Y-11995008D02*
X14401253Y-11985484D01*
X14401253Y-11985484D02*
X14410777Y-11966436D01*
X14410777Y-11966436D02*
X14420301Y-11956913D01*
X14420301Y-11956913D02*
X14439348Y-11947389D01*
X14439348Y-11947389D02*
X14477443Y-11947389D01*
X14477443Y-11947389D02*
X14496491Y-11956913D01*
X14496491Y-11956913D02*
X14506015Y-11966436D01*
X14506015Y-11966436D02*
X14515539Y-11985484D01*
X14515539Y-11985484D02*
X14515539Y-11995008D01*
X14515539Y-11995008D02*
X14506015Y-12014055D01*
X14506015Y-12014055D02*
X14496491Y-12023579D01*
X14496491Y-12023579D02*
X14477443Y-12033103D01*
X14477443Y-12033103D02*
X14439348Y-12033103D01*
X14439348Y-12033103D02*
X14420301Y-12042627D01*
X14420301Y-12042627D02*
X14410777Y-12052151D01*
X14410777Y-12052151D02*
X14401253Y-12071198D01*
X14401253Y-12071198D02*
X14401253Y-12109293D01*
X14401253Y-12109293D02*
X14410777Y-12128341D01*
X14410777Y-12128341D02*
X14420301Y-12137865D01*
X14420301Y-12137865D02*
X14439348Y-12147389D01*
X14439348Y-12147389D02*
X14477443Y-12147389D01*
X14477443Y-12147389D02*
X14496491Y-12137865D01*
X14496491Y-12137865D02*
X14506015Y-12128341D01*
X14506015Y-12128341D02*
X14515539Y-12109293D01*
X14515539Y-12109293D02*
X14515539Y-12071198D01*
X14515539Y-12071198D02*
X14506015Y-12052151D01*
X14506015Y-12052151D02*
X14496491Y-12042627D01*
X14496491Y-12042627D02*
X14477443Y-12033103D01*
X14591729Y-11947389D02*
X14591729Y-11985484D01*
X14667920Y-11947389D02*
X14667920Y-11985484D01*
X14963158Y-12223579D02*
X14953634Y-12214055D01*
X14953634Y-12214055D02*
X14934586Y-12185484D01*
X14934586Y-12185484D02*
X14925063Y-12166436D01*
X14925063Y-12166436D02*
X14915539Y-12137865D01*
X14915539Y-12137865D02*
X14906015Y-12090246D01*
X14906015Y-12090246D02*
X14906015Y-12052151D01*
X14906015Y-12052151D02*
X14915539Y-12004532D01*
X14915539Y-12004532D02*
X14925063Y-11975960D01*
X14925063Y-11975960D02*
X14934586Y-11956913D01*
X14934586Y-11956913D02*
X14953634Y-11928341D01*
X14953634Y-11928341D02*
X14963158Y-11918817D01*
X15067920Y-12033103D02*
X15048872Y-12023579D01*
X15048872Y-12023579D02*
X15039348Y-12014055D01*
X15039348Y-12014055D02*
X15029824Y-11995008D01*
X15029824Y-11995008D02*
X15029824Y-11985484D01*
X15029824Y-11985484D02*
X15039348Y-11966436D01*
X15039348Y-11966436D02*
X15048872Y-11956913D01*
X15048872Y-11956913D02*
X15067920Y-11947389D01*
X15067920Y-11947389D02*
X15106015Y-11947389D01*
X15106015Y-11947389D02*
X15125063Y-11956913D01*
X15125063Y-11956913D02*
X15134586Y-11966436D01*
X15134586Y-11966436D02*
X15144110Y-11985484D01*
X15144110Y-11985484D02*
X15144110Y-11995008D01*
X15144110Y-11995008D02*
X15134586Y-12014055D01*
X15134586Y-12014055D02*
X15125063Y-12023579D01*
X15125063Y-12023579D02*
X15106015Y-12033103D01*
X15106015Y-12033103D02*
X15067920Y-12033103D01*
X15067920Y-12033103D02*
X15048872Y-12042627D01*
X15048872Y-12042627D02*
X15039348Y-12052151D01*
X15039348Y-12052151D02*
X15029824Y-12071198D01*
X15029824Y-12071198D02*
X15029824Y-12109293D01*
X15029824Y-12109293D02*
X15039348Y-12128341D01*
X15039348Y-12128341D02*
X15048872Y-12137865D01*
X15048872Y-12137865D02*
X15067920Y-12147389D01*
X15067920Y-12147389D02*
X15106015Y-12147389D01*
X15106015Y-12147389D02*
X15125063Y-12137865D01*
X15125063Y-12137865D02*
X15134586Y-12128341D01*
X15134586Y-12128341D02*
X15144110Y-12109293D01*
X15144110Y-12109293D02*
X15144110Y-12071198D01*
X15144110Y-12071198D02*
X15134586Y-12052151D01*
X15134586Y-12052151D02*
X15125063Y-12042627D01*
X15125063Y-12042627D02*
X15106015Y-12033103D01*
X15382205Y-12147389D02*
X15382205Y-11947389D01*
X15467920Y-12147389D02*
X15467920Y-12042627D01*
X15467920Y-12042627D02*
X15458396Y-12023579D01*
X15458396Y-12023579D02*
X15439348Y-12014055D01*
X15439348Y-12014055D02*
X15410777Y-12014055D01*
X15410777Y-12014055D02*
X15391729Y-12023579D01*
X15391729Y-12023579D02*
X15382205Y-12033103D01*
X15591729Y-12147389D02*
X15572682Y-12137865D01*
X15572682Y-12137865D02*
X15563158Y-12128341D01*
X15563158Y-12128341D02*
X15553634Y-12109293D01*
X15553634Y-12109293D02*
X15553634Y-12052151D01*
X15553634Y-12052151D02*
X15563158Y-12033103D01*
X15563158Y-12033103D02*
X15572682Y-12023579D01*
X15572682Y-12023579D02*
X15591729Y-12014055D01*
X15591729Y-12014055D02*
X15620301Y-12014055D01*
X15620301Y-12014055D02*
X15639348Y-12023579D01*
X15639348Y-12023579D02*
X15648872Y-12033103D01*
X15648872Y-12033103D02*
X15658396Y-12052151D01*
X15658396Y-12052151D02*
X15658396Y-12109293D01*
X15658396Y-12109293D02*
X15648872Y-12128341D01*
X15648872Y-12128341D02*
X15639348Y-12137865D01*
X15639348Y-12137865D02*
X15620301Y-12147389D01*
X15620301Y-12147389D02*
X15591729Y-12147389D01*
X15772682Y-12147389D02*
X15753634Y-12137865D01*
X15753634Y-12137865D02*
X15744110Y-12118817D01*
X15744110Y-12118817D02*
X15744110Y-11947389D01*
X15925063Y-12137865D02*
X15906015Y-12147389D01*
X15906015Y-12147389D02*
X15867920Y-12147389D01*
X15867920Y-12147389D02*
X15848872Y-12137865D01*
X15848872Y-12137865D02*
X15839348Y-12118817D01*
X15839348Y-12118817D02*
X15839348Y-12042627D01*
X15839348Y-12042627D02*
X15848872Y-12023579D01*
X15848872Y-12023579D02*
X15867920Y-12014055D01*
X15867920Y-12014055D02*
X15906015Y-12014055D01*
X15906015Y-12014055D02*
X15925063Y-12023579D01*
X15925063Y-12023579D02*
X15934586Y-12042627D01*
X15934586Y-12042627D02*
X15934586Y-12061674D01*
X15934586Y-12061674D02*
X15839348Y-12080722D01*
X16010777Y-12137865D02*
X16029825Y-12147389D01*
X16029825Y-12147389D02*
X16067920Y-12147389D01*
X16067920Y-12147389D02*
X16086967Y-12137865D01*
X16086967Y-12137865D02*
X16096491Y-12118817D01*
X16096491Y-12118817D02*
X16096491Y-12109293D01*
X16096491Y-12109293D02*
X16086967Y-12090246D01*
X16086967Y-12090246D02*
X16067920Y-12080722D01*
X16067920Y-12080722D02*
X16039348Y-12080722D01*
X16039348Y-12080722D02*
X16020301Y-12071198D01*
X16020301Y-12071198D02*
X16010777Y-12052151D01*
X16010777Y-12052151D02*
X16010777Y-12042627D01*
X16010777Y-12042627D02*
X16020301Y-12023579D01*
X16020301Y-12023579D02*
X16039348Y-12014055D01*
X16039348Y-12014055D02*
X16067920Y-12014055D01*
X16067920Y-12014055D02*
X16086967Y-12023579D01*
X16163158Y-12223579D02*
X16172682Y-12214055D01*
X16172682Y-12214055D02*
X16191729Y-12185484D01*
X16191729Y-12185484D02*
X16201253Y-12166436D01*
X16201253Y-12166436D02*
X16210777Y-12137865D01*
X16210777Y-12137865D02*
X16220301Y-12090246D01*
X16220301Y-12090246D02*
X16220301Y-12052151D01*
X16220301Y-12052151D02*
X16210777Y-12004532D01*
X16210777Y-12004532D02*
X16201253Y-11975960D01*
X16201253Y-11975960D02*
X16191729Y-11956913D01*
X16191729Y-11956913D02*
X16172682Y-11928341D01*
X16172682Y-11928341D02*
X16163158Y-11918817D01*
D12*
X11348095Y-12279905D02*
X11348095Y-12359905D01*
X11308095Y-12319905D02*
X11388095Y-12319905D01*
D11*
X11686967Y-12211389D02*
X11706015Y-12211389D01*
X11706015Y-12211389D02*
X11725062Y-12220913D01*
X11725062Y-12220913D02*
X11734586Y-12230436D01*
X11734586Y-12230436D02*
X11744110Y-12249484D01*
X11744110Y-12249484D02*
X11753634Y-12287579D01*
X11753634Y-12287579D02*
X11753634Y-12335198D01*
X11753634Y-12335198D02*
X11744110Y-12373293D01*
X11744110Y-12373293D02*
X11734586Y-12392341D01*
X11734586Y-12392341D02*
X11725062Y-12401865D01*
X11725062Y-12401865D02*
X11706015Y-12411389D01*
X11706015Y-12411389D02*
X11686967Y-12411389D01*
X11686967Y-12411389D02*
X11667919Y-12401865D01*
X11667919Y-12401865D02*
X11658396Y-12392341D01*
X11658396Y-12392341D02*
X11648872Y-12373293D01*
X11648872Y-12373293D02*
X11639348Y-12335198D01*
X11639348Y-12335198D02*
X11639348Y-12287579D01*
X11639348Y-12287579D02*
X11648872Y-12249484D01*
X11648872Y-12249484D02*
X11658396Y-12230436D01*
X11658396Y-12230436D02*
X11667919Y-12220913D01*
X11667919Y-12220913D02*
X11686967Y-12211389D01*
X11839348Y-12392341D02*
X11848872Y-12401865D01*
X11848872Y-12401865D02*
X11839348Y-12411389D01*
X11839348Y-12411389D02*
X11829824Y-12401865D01*
X11829824Y-12401865D02*
X11839348Y-12392341D01*
X11839348Y-12392341D02*
X11839348Y-12411389D01*
X11963157Y-12297103D02*
X11944110Y-12287579D01*
X11944110Y-12287579D02*
X11934586Y-12278055D01*
X11934586Y-12278055D02*
X11925062Y-12259008D01*
X11925062Y-12259008D02*
X11925062Y-12249484D01*
X11925062Y-12249484D02*
X11934586Y-12230436D01*
X11934586Y-12230436D02*
X11944110Y-12220913D01*
X11944110Y-12220913D02*
X11963157Y-12211389D01*
X11963157Y-12211389D02*
X12001253Y-12211389D01*
X12001253Y-12211389D02*
X12020300Y-12220913D01*
X12020300Y-12220913D02*
X12029824Y-12230436D01*
X12029824Y-12230436D02*
X12039348Y-12249484D01*
X12039348Y-12249484D02*
X12039348Y-12259008D01*
X12039348Y-12259008D02*
X12029824Y-12278055D01*
X12029824Y-12278055D02*
X12020300Y-12287579D01*
X12020300Y-12287579D02*
X12001253Y-12297103D01*
X12001253Y-12297103D02*
X11963157Y-12297103D01*
X11963157Y-12297103D02*
X11944110Y-12306627D01*
X11944110Y-12306627D02*
X11934586Y-12316151D01*
X11934586Y-12316151D02*
X11925062Y-12335198D01*
X11925062Y-12335198D02*
X11925062Y-12373293D01*
X11925062Y-12373293D02*
X11934586Y-12392341D01*
X11934586Y-12392341D02*
X11944110Y-12401865D01*
X11944110Y-12401865D02*
X11963157Y-12411389D01*
X11963157Y-12411389D02*
X12001253Y-12411389D01*
X12001253Y-12411389D02*
X12020300Y-12401865D01*
X12020300Y-12401865D02*
X12029824Y-12392341D01*
X12029824Y-12392341D02*
X12039348Y-12373293D01*
X12039348Y-12373293D02*
X12039348Y-12335198D01*
X12039348Y-12335198D02*
X12029824Y-12316151D01*
X12029824Y-12316151D02*
X12020300Y-12306627D01*
X12020300Y-12306627D02*
X12001253Y-12297103D01*
X12163157Y-12211389D02*
X12182205Y-12211389D01*
X12182205Y-12211389D02*
X12201253Y-12220913D01*
X12201253Y-12220913D02*
X12210777Y-12230436D01*
X12210777Y-12230436D02*
X12220300Y-12249484D01*
X12220300Y-12249484D02*
X12229824Y-12287579D01*
X12229824Y-12287579D02*
X12229824Y-12335198D01*
X12229824Y-12335198D02*
X12220300Y-12373293D01*
X12220300Y-12373293D02*
X12210777Y-12392341D01*
X12210777Y-12392341D02*
X12201253Y-12401865D01*
X12201253Y-12401865D02*
X12182205Y-12411389D01*
X12182205Y-12411389D02*
X12163157Y-12411389D01*
X12163157Y-12411389D02*
X12144110Y-12401865D01*
X12144110Y-12401865D02*
X12134586Y-12392341D01*
X12134586Y-12392341D02*
X12125062Y-12373293D01*
X12125062Y-12373293D02*
X12115538Y-12335198D01*
X12115538Y-12335198D02*
X12115538Y-12287579D01*
X12115538Y-12287579D02*
X12125062Y-12249484D01*
X12125062Y-12249484D02*
X12134586Y-12230436D01*
X12134586Y-12230436D02*
X12144110Y-12220913D01*
X12144110Y-12220913D02*
X12163157Y-12211389D01*
X12353634Y-12211389D02*
X12372681Y-12211389D01*
X12372681Y-12211389D02*
X12391729Y-12220913D01*
X12391729Y-12220913D02*
X12401253Y-12230436D01*
X12401253Y-12230436D02*
X12410777Y-12249484D01*
X12410777Y-12249484D02*
X12420300Y-12287579D01*
X12420300Y-12287579D02*
X12420300Y-12335198D01*
X12420300Y-12335198D02*
X12410777Y-12373293D01*
X12410777Y-12373293D02*
X12401253Y-12392341D01*
X12401253Y-12392341D02*
X12391729Y-12401865D01*
X12391729Y-12401865D02*
X12372681Y-12411389D01*
X12372681Y-12411389D02*
X12353634Y-12411389D01*
X12353634Y-12411389D02*
X12334586Y-12401865D01*
X12334586Y-12401865D02*
X12325062Y-12392341D01*
X12325062Y-12392341D02*
X12315538Y-12373293D01*
X12315538Y-12373293D02*
X12306015Y-12335198D01*
X12306015Y-12335198D02*
X12306015Y-12287579D01*
X12306015Y-12287579D02*
X12315538Y-12249484D01*
X12315538Y-12249484D02*
X12325062Y-12230436D01*
X12325062Y-12230436D02*
X12334586Y-12220913D01*
X12334586Y-12220913D02*
X12353634Y-12211389D01*
X12506015Y-12411389D02*
X12506015Y-12278055D01*
X12506015Y-12297103D02*
X12515538Y-12287579D01*
X12515538Y-12287579D02*
X12534586Y-12278055D01*
X12534586Y-12278055D02*
X12563158Y-12278055D01*
X12563158Y-12278055D02*
X12582205Y-12287579D01*
X12582205Y-12287579D02*
X12591729Y-12306627D01*
X12591729Y-12306627D02*
X12591729Y-12411389D01*
X12591729Y-12306627D02*
X12601253Y-12287579D01*
X12601253Y-12287579D02*
X12620300Y-12278055D01*
X12620300Y-12278055D02*
X12648872Y-12278055D01*
X12648872Y-12278055D02*
X12667919Y-12287579D01*
X12667919Y-12287579D02*
X12677443Y-12306627D01*
X12677443Y-12306627D02*
X12677443Y-12411389D01*
X12772681Y-12411389D02*
X12772681Y-12278055D01*
X12772681Y-12297103D02*
X12782205Y-12287579D01*
X12782205Y-12287579D02*
X12801253Y-12278055D01*
X12801253Y-12278055D02*
X12829824Y-12278055D01*
X12829824Y-12278055D02*
X12848872Y-12287579D01*
X12848872Y-12287579D02*
X12858396Y-12306627D01*
X12858396Y-12306627D02*
X12858396Y-12411389D01*
X12858396Y-12306627D02*
X12867919Y-12287579D01*
X12867919Y-12287579D02*
X12886967Y-12278055D01*
X12886967Y-12278055D02*
X12915538Y-12278055D01*
X12915538Y-12278055D02*
X12934586Y-12287579D01*
X12934586Y-12287579D02*
X12944110Y-12306627D01*
X12944110Y-12306627D02*
X12944110Y-12411389D01*
X13334586Y-12201865D02*
X13163158Y-12459008D01*
X13591729Y-12211389D02*
X13610777Y-12211389D01*
X13610777Y-12211389D02*
X13629824Y-12220913D01*
X13629824Y-12220913D02*
X13639348Y-12230436D01*
X13639348Y-12230436D02*
X13648872Y-12249484D01*
X13648872Y-12249484D02*
X13658396Y-12287579D01*
X13658396Y-12287579D02*
X13658396Y-12335198D01*
X13658396Y-12335198D02*
X13648872Y-12373293D01*
X13648872Y-12373293D02*
X13639348Y-12392341D01*
X13639348Y-12392341D02*
X13629824Y-12401865D01*
X13629824Y-12401865D02*
X13610777Y-12411389D01*
X13610777Y-12411389D02*
X13591729Y-12411389D01*
X13591729Y-12411389D02*
X13572681Y-12401865D01*
X13572681Y-12401865D02*
X13563158Y-12392341D01*
X13563158Y-12392341D02*
X13553634Y-12373293D01*
X13553634Y-12373293D02*
X13544110Y-12335198D01*
X13544110Y-12335198D02*
X13544110Y-12287579D01*
X13544110Y-12287579D02*
X13553634Y-12249484D01*
X13553634Y-12249484D02*
X13563158Y-12230436D01*
X13563158Y-12230436D02*
X13572681Y-12220913D01*
X13572681Y-12220913D02*
X13591729Y-12211389D01*
X13744110Y-12392341D02*
X13753634Y-12401865D01*
X13753634Y-12401865D02*
X13744110Y-12411389D01*
X13744110Y-12411389D02*
X13734586Y-12401865D01*
X13734586Y-12401865D02*
X13744110Y-12392341D01*
X13744110Y-12392341D02*
X13744110Y-12411389D01*
X13877443Y-12211389D02*
X13896491Y-12211389D01*
X13896491Y-12211389D02*
X13915539Y-12220913D01*
X13915539Y-12220913D02*
X13925062Y-12230436D01*
X13925062Y-12230436D02*
X13934586Y-12249484D01*
X13934586Y-12249484D02*
X13944110Y-12287579D01*
X13944110Y-12287579D02*
X13944110Y-12335198D01*
X13944110Y-12335198D02*
X13934586Y-12373293D01*
X13934586Y-12373293D02*
X13925062Y-12392341D01*
X13925062Y-12392341D02*
X13915539Y-12401865D01*
X13915539Y-12401865D02*
X13896491Y-12411389D01*
X13896491Y-12411389D02*
X13877443Y-12411389D01*
X13877443Y-12411389D02*
X13858396Y-12401865D01*
X13858396Y-12401865D02*
X13848872Y-12392341D01*
X13848872Y-12392341D02*
X13839348Y-12373293D01*
X13839348Y-12373293D02*
X13829824Y-12335198D01*
X13829824Y-12335198D02*
X13829824Y-12287579D01*
X13829824Y-12287579D02*
X13839348Y-12249484D01*
X13839348Y-12249484D02*
X13848872Y-12230436D01*
X13848872Y-12230436D02*
X13858396Y-12220913D01*
X13858396Y-12220913D02*
X13877443Y-12211389D01*
X14010777Y-12211389D02*
X14134586Y-12211389D01*
X14134586Y-12211389D02*
X14067920Y-12287579D01*
X14067920Y-12287579D02*
X14096491Y-12287579D01*
X14096491Y-12287579D02*
X14115539Y-12297103D01*
X14115539Y-12297103D02*
X14125062Y-12306627D01*
X14125062Y-12306627D02*
X14134586Y-12325674D01*
X14134586Y-12325674D02*
X14134586Y-12373293D01*
X14134586Y-12373293D02*
X14125062Y-12392341D01*
X14125062Y-12392341D02*
X14115539Y-12401865D01*
X14115539Y-12401865D02*
X14096491Y-12411389D01*
X14096491Y-12411389D02*
X14039348Y-12411389D01*
X14039348Y-12411389D02*
X14020301Y-12401865D01*
X14020301Y-12401865D02*
X14010777Y-12392341D01*
X14325062Y-12411389D02*
X14210777Y-12411389D01*
X14267920Y-12411389D02*
X14267920Y-12211389D01*
X14267920Y-12211389D02*
X14248872Y-12239960D01*
X14248872Y-12239960D02*
X14229824Y-12259008D01*
X14229824Y-12259008D02*
X14210777Y-12268532D01*
X14506015Y-12211389D02*
X14410777Y-12211389D01*
X14410777Y-12211389D02*
X14401253Y-12306627D01*
X14401253Y-12306627D02*
X14410777Y-12297103D01*
X14410777Y-12297103D02*
X14429824Y-12287579D01*
X14429824Y-12287579D02*
X14477443Y-12287579D01*
X14477443Y-12287579D02*
X14496491Y-12297103D01*
X14496491Y-12297103D02*
X14506015Y-12306627D01*
X14506015Y-12306627D02*
X14515539Y-12325674D01*
X14515539Y-12325674D02*
X14515539Y-12373293D01*
X14515539Y-12373293D02*
X14506015Y-12392341D01*
X14506015Y-12392341D02*
X14496491Y-12401865D01*
X14496491Y-12401865D02*
X14477443Y-12411389D01*
X14477443Y-12411389D02*
X14429824Y-12411389D01*
X14429824Y-12411389D02*
X14410777Y-12401865D01*
X14410777Y-12401865D02*
X14401253Y-12392341D01*
X14591729Y-12211389D02*
X14591729Y-12249484D01*
X14667920Y-12211389D02*
X14667920Y-12249484D01*
X14963158Y-12487579D02*
X14953634Y-12478055D01*
X14953634Y-12478055D02*
X14934586Y-12449484D01*
X14934586Y-12449484D02*
X14925063Y-12430436D01*
X14925063Y-12430436D02*
X14915539Y-12401865D01*
X14915539Y-12401865D02*
X14906015Y-12354246D01*
X14906015Y-12354246D02*
X14906015Y-12316151D01*
X14906015Y-12316151D02*
X14915539Y-12268532D01*
X14915539Y-12268532D02*
X14925063Y-12239960D01*
X14925063Y-12239960D02*
X14934586Y-12220913D01*
X14934586Y-12220913D02*
X14953634Y-12192341D01*
X14953634Y-12192341D02*
X14963158Y-12182817D01*
X15029824Y-12230436D02*
X15039348Y-12220913D01*
X15039348Y-12220913D02*
X15058396Y-12211389D01*
X15058396Y-12211389D02*
X15106015Y-12211389D01*
X15106015Y-12211389D02*
X15125063Y-12220913D01*
X15125063Y-12220913D02*
X15134586Y-12230436D01*
X15134586Y-12230436D02*
X15144110Y-12249484D01*
X15144110Y-12249484D02*
X15144110Y-12268532D01*
X15144110Y-12268532D02*
X15134586Y-12297103D01*
X15134586Y-12297103D02*
X15020301Y-12411389D01*
X15020301Y-12411389D02*
X15144110Y-12411389D01*
X15382205Y-12411389D02*
X15382205Y-12211389D01*
X15467920Y-12411389D02*
X15467920Y-12306627D01*
X15467920Y-12306627D02*
X15458396Y-12287579D01*
X15458396Y-12287579D02*
X15439348Y-12278055D01*
X15439348Y-12278055D02*
X15410777Y-12278055D01*
X15410777Y-12278055D02*
X15391729Y-12287579D01*
X15391729Y-12287579D02*
X15382205Y-12297103D01*
X15591729Y-12411389D02*
X15572682Y-12401865D01*
X15572682Y-12401865D02*
X15563158Y-12392341D01*
X15563158Y-12392341D02*
X15553634Y-12373293D01*
X15553634Y-12373293D02*
X15553634Y-12316151D01*
X15553634Y-12316151D02*
X15563158Y-12297103D01*
X15563158Y-12297103D02*
X15572682Y-12287579D01*
X15572682Y-12287579D02*
X15591729Y-12278055D01*
X15591729Y-12278055D02*
X15620301Y-12278055D01*
X15620301Y-12278055D02*
X15639348Y-12287579D01*
X15639348Y-12287579D02*
X15648872Y-12297103D01*
X15648872Y-12297103D02*
X15658396Y-12316151D01*
X15658396Y-12316151D02*
X15658396Y-12373293D01*
X15658396Y-12373293D02*
X15648872Y-12392341D01*
X15648872Y-12392341D02*
X15639348Y-12401865D01*
X15639348Y-12401865D02*
X15620301Y-12411389D01*
X15620301Y-12411389D02*
X15591729Y-12411389D01*
X15772682Y-12411389D02*
X15753634Y-12401865D01*
X15753634Y-12401865D02*
X15744110Y-12382817D01*
X15744110Y-12382817D02*
X15744110Y-12211389D01*
X15925063Y-12401865D02*
X15906015Y-12411389D01*
X15906015Y-12411389D02*
X15867920Y-12411389D01*
X15867920Y-12411389D02*
X15848872Y-12401865D01*
X15848872Y-12401865D02*
X15839348Y-12382817D01*
X15839348Y-12382817D02*
X15839348Y-12306627D01*
X15839348Y-12306627D02*
X15848872Y-12287579D01*
X15848872Y-12287579D02*
X15867920Y-12278055D01*
X15867920Y-12278055D02*
X15906015Y-12278055D01*
X15906015Y-12278055D02*
X15925063Y-12287579D01*
X15925063Y-12287579D02*
X15934586Y-12306627D01*
X15934586Y-12306627D02*
X15934586Y-12325674D01*
X15934586Y-12325674D02*
X15839348Y-12344722D01*
X16010777Y-12401865D02*
X16029825Y-12411389D01*
X16029825Y-12411389D02*
X16067920Y-12411389D01*
X16067920Y-12411389D02*
X16086967Y-12401865D01*
X16086967Y-12401865D02*
X16096491Y-12382817D01*
X16096491Y-12382817D02*
X16096491Y-12373293D01*
X16096491Y-12373293D02*
X16086967Y-12354246D01*
X16086967Y-12354246D02*
X16067920Y-12344722D01*
X16067920Y-12344722D02*
X16039348Y-12344722D01*
X16039348Y-12344722D02*
X16020301Y-12335198D01*
X16020301Y-12335198D02*
X16010777Y-12316151D01*
X16010777Y-12316151D02*
X16010777Y-12306627D01*
X16010777Y-12306627D02*
X16020301Y-12287579D01*
X16020301Y-12287579D02*
X16039348Y-12278055D01*
X16039348Y-12278055D02*
X16067920Y-12278055D01*
X16067920Y-12278055D02*
X16086967Y-12287579D01*
X16163158Y-12487579D02*
X16172682Y-12478055D01*
X16172682Y-12478055D02*
X16191729Y-12449484D01*
X16191729Y-12449484D02*
X16201253Y-12430436D01*
X16201253Y-12430436D02*
X16210777Y-12401865D01*
X16210777Y-12401865D02*
X16220301Y-12354246D01*
X16220301Y-12354246D02*
X16220301Y-12316151D01*
X16220301Y-12316151D02*
X16210777Y-12268532D01*
X16210777Y-12268532D02*
X16201253Y-12239960D01*
X16201253Y-12239960D02*
X16191729Y-12220913D01*
X16191729Y-12220913D02*
X16172682Y-12192341D01*
X16172682Y-12192341D02*
X16163158Y-12182817D01*
D12*
X11373451Y-12619261D02*
X11373451Y-12548549D01*
X11302739Y-12548549D01*
X11302739Y-12619261D01*
X11373451Y-12619261D01*
D11*
X11753634Y-12675389D02*
X11639348Y-12675389D01*
X11696491Y-12675389D02*
X11696491Y-12475389D01*
X11696491Y-12475389D02*
X11677443Y-12503960D01*
X11677443Y-12503960D02*
X11658396Y-12523008D01*
X11658396Y-12523008D02*
X11639348Y-12532532D01*
X11839348Y-12656341D02*
X11848872Y-12665865D01*
X11848872Y-12665865D02*
X11839348Y-12675389D01*
X11839348Y-12675389D02*
X11829824Y-12665865D01*
X11829824Y-12665865D02*
X11839348Y-12656341D01*
X11839348Y-12656341D02*
X11839348Y-12675389D01*
X11972681Y-12475389D02*
X11991729Y-12475389D01*
X11991729Y-12475389D02*
X12010777Y-12484913D01*
X12010777Y-12484913D02*
X12020300Y-12494436D01*
X12020300Y-12494436D02*
X12029824Y-12513484D01*
X12029824Y-12513484D02*
X12039348Y-12551579D01*
X12039348Y-12551579D02*
X12039348Y-12599198D01*
X12039348Y-12599198D02*
X12029824Y-12637293D01*
X12029824Y-12637293D02*
X12020300Y-12656341D01*
X12020300Y-12656341D02*
X12010777Y-12665865D01*
X12010777Y-12665865D02*
X11991729Y-12675389D01*
X11991729Y-12675389D02*
X11972681Y-12675389D01*
X11972681Y-12675389D02*
X11953634Y-12665865D01*
X11953634Y-12665865D02*
X11944110Y-12656341D01*
X11944110Y-12656341D02*
X11934586Y-12637293D01*
X11934586Y-12637293D02*
X11925062Y-12599198D01*
X11925062Y-12599198D02*
X11925062Y-12551579D01*
X11925062Y-12551579D02*
X11934586Y-12513484D01*
X11934586Y-12513484D02*
X11944110Y-12494436D01*
X11944110Y-12494436D02*
X11953634Y-12484913D01*
X11953634Y-12484913D02*
X11972681Y-12475389D01*
X12163157Y-12475389D02*
X12182205Y-12475389D01*
X12182205Y-12475389D02*
X12201253Y-12484913D01*
X12201253Y-12484913D02*
X12210777Y-12494436D01*
X12210777Y-12494436D02*
X12220300Y-12513484D01*
X12220300Y-12513484D02*
X12229824Y-12551579D01*
X12229824Y-12551579D02*
X12229824Y-12599198D01*
X12229824Y-12599198D02*
X12220300Y-12637293D01*
X12220300Y-12637293D02*
X12210777Y-12656341D01*
X12210777Y-12656341D02*
X12201253Y-12665865D01*
X12201253Y-12665865D02*
X12182205Y-12675389D01*
X12182205Y-12675389D02*
X12163157Y-12675389D01*
X12163157Y-12675389D02*
X12144110Y-12665865D01*
X12144110Y-12665865D02*
X12134586Y-12656341D01*
X12134586Y-12656341D02*
X12125062Y-12637293D01*
X12125062Y-12637293D02*
X12115538Y-12599198D01*
X12115538Y-12599198D02*
X12115538Y-12551579D01*
X12115538Y-12551579D02*
X12125062Y-12513484D01*
X12125062Y-12513484D02*
X12134586Y-12494436D01*
X12134586Y-12494436D02*
X12144110Y-12484913D01*
X12144110Y-12484913D02*
X12163157Y-12475389D01*
X12353634Y-12475389D02*
X12372681Y-12475389D01*
X12372681Y-12475389D02*
X12391729Y-12484913D01*
X12391729Y-12484913D02*
X12401253Y-12494436D01*
X12401253Y-12494436D02*
X12410777Y-12513484D01*
X12410777Y-12513484D02*
X12420300Y-12551579D01*
X12420300Y-12551579D02*
X12420300Y-12599198D01*
X12420300Y-12599198D02*
X12410777Y-12637293D01*
X12410777Y-12637293D02*
X12401253Y-12656341D01*
X12401253Y-12656341D02*
X12391729Y-12665865D01*
X12391729Y-12665865D02*
X12372681Y-12675389D01*
X12372681Y-12675389D02*
X12353634Y-12675389D01*
X12353634Y-12675389D02*
X12334586Y-12665865D01*
X12334586Y-12665865D02*
X12325062Y-12656341D01*
X12325062Y-12656341D02*
X12315538Y-12637293D01*
X12315538Y-12637293D02*
X12306015Y-12599198D01*
X12306015Y-12599198D02*
X12306015Y-12551579D01*
X12306015Y-12551579D02*
X12315538Y-12513484D01*
X12315538Y-12513484D02*
X12325062Y-12494436D01*
X12325062Y-12494436D02*
X12334586Y-12484913D01*
X12334586Y-12484913D02*
X12353634Y-12475389D01*
X12506015Y-12675389D02*
X12506015Y-12542055D01*
X12506015Y-12561103D02*
X12515538Y-12551579D01*
X12515538Y-12551579D02*
X12534586Y-12542055D01*
X12534586Y-12542055D02*
X12563158Y-12542055D01*
X12563158Y-12542055D02*
X12582205Y-12551579D01*
X12582205Y-12551579D02*
X12591729Y-12570627D01*
X12591729Y-12570627D02*
X12591729Y-12675389D01*
X12591729Y-12570627D02*
X12601253Y-12551579D01*
X12601253Y-12551579D02*
X12620300Y-12542055D01*
X12620300Y-12542055D02*
X12648872Y-12542055D01*
X12648872Y-12542055D02*
X12667919Y-12551579D01*
X12667919Y-12551579D02*
X12677443Y-12570627D01*
X12677443Y-12570627D02*
X12677443Y-12675389D01*
X12772681Y-12675389D02*
X12772681Y-12542055D01*
X12772681Y-12561103D02*
X12782205Y-12551579D01*
X12782205Y-12551579D02*
X12801253Y-12542055D01*
X12801253Y-12542055D02*
X12829824Y-12542055D01*
X12829824Y-12542055D02*
X12848872Y-12551579D01*
X12848872Y-12551579D02*
X12858396Y-12570627D01*
X12858396Y-12570627D02*
X12858396Y-12675389D01*
X12858396Y-12570627D02*
X12867919Y-12551579D01*
X12867919Y-12551579D02*
X12886967Y-12542055D01*
X12886967Y-12542055D02*
X12915538Y-12542055D01*
X12915538Y-12542055D02*
X12934586Y-12551579D01*
X12934586Y-12551579D02*
X12944110Y-12570627D01*
X12944110Y-12570627D02*
X12944110Y-12675389D01*
X13334586Y-12465865D02*
X13163158Y-12723008D01*
X13591729Y-12475389D02*
X13610777Y-12475389D01*
X13610777Y-12475389D02*
X13629824Y-12484913D01*
X13629824Y-12484913D02*
X13639348Y-12494436D01*
X13639348Y-12494436D02*
X13648872Y-12513484D01*
X13648872Y-12513484D02*
X13658396Y-12551579D01*
X13658396Y-12551579D02*
X13658396Y-12599198D01*
X13658396Y-12599198D02*
X13648872Y-12637293D01*
X13648872Y-12637293D02*
X13639348Y-12656341D01*
X13639348Y-12656341D02*
X13629824Y-12665865D01*
X13629824Y-12665865D02*
X13610777Y-12675389D01*
X13610777Y-12675389D02*
X13591729Y-12675389D01*
X13591729Y-12675389D02*
X13572681Y-12665865D01*
X13572681Y-12665865D02*
X13563158Y-12656341D01*
X13563158Y-12656341D02*
X13553634Y-12637293D01*
X13553634Y-12637293D02*
X13544110Y-12599198D01*
X13544110Y-12599198D02*
X13544110Y-12551579D01*
X13544110Y-12551579D02*
X13553634Y-12513484D01*
X13553634Y-12513484D02*
X13563158Y-12494436D01*
X13563158Y-12494436D02*
X13572681Y-12484913D01*
X13572681Y-12484913D02*
X13591729Y-12475389D01*
X13744110Y-12656341D02*
X13753634Y-12665865D01*
X13753634Y-12665865D02*
X13744110Y-12675389D01*
X13744110Y-12675389D02*
X13734586Y-12665865D01*
X13734586Y-12665865D02*
X13744110Y-12656341D01*
X13744110Y-12656341D02*
X13744110Y-12675389D01*
X13877443Y-12475389D02*
X13896491Y-12475389D01*
X13896491Y-12475389D02*
X13915539Y-12484913D01*
X13915539Y-12484913D02*
X13925062Y-12494436D01*
X13925062Y-12494436D02*
X13934586Y-12513484D01*
X13934586Y-12513484D02*
X13944110Y-12551579D01*
X13944110Y-12551579D02*
X13944110Y-12599198D01*
X13944110Y-12599198D02*
X13934586Y-12637293D01*
X13934586Y-12637293D02*
X13925062Y-12656341D01*
X13925062Y-12656341D02*
X13915539Y-12665865D01*
X13915539Y-12665865D02*
X13896491Y-12675389D01*
X13896491Y-12675389D02*
X13877443Y-12675389D01*
X13877443Y-12675389D02*
X13858396Y-12665865D01*
X13858396Y-12665865D02*
X13848872Y-12656341D01*
X13848872Y-12656341D02*
X13839348Y-12637293D01*
X13839348Y-12637293D02*
X13829824Y-12599198D01*
X13829824Y-12599198D02*
X13829824Y-12551579D01*
X13829824Y-12551579D02*
X13839348Y-12513484D01*
X13839348Y-12513484D02*
X13848872Y-12494436D01*
X13848872Y-12494436D02*
X13858396Y-12484913D01*
X13858396Y-12484913D02*
X13877443Y-12475389D01*
X14010777Y-12475389D02*
X14134586Y-12475389D01*
X14134586Y-12475389D02*
X14067920Y-12551579D01*
X14067920Y-12551579D02*
X14096491Y-12551579D01*
X14096491Y-12551579D02*
X14115539Y-12561103D01*
X14115539Y-12561103D02*
X14125062Y-12570627D01*
X14125062Y-12570627D02*
X14134586Y-12589674D01*
X14134586Y-12589674D02*
X14134586Y-12637293D01*
X14134586Y-12637293D02*
X14125062Y-12656341D01*
X14125062Y-12656341D02*
X14115539Y-12665865D01*
X14115539Y-12665865D02*
X14096491Y-12675389D01*
X14096491Y-12675389D02*
X14039348Y-12675389D01*
X14039348Y-12675389D02*
X14020301Y-12665865D01*
X14020301Y-12665865D02*
X14010777Y-12656341D01*
X14229824Y-12675389D02*
X14267920Y-12675389D01*
X14267920Y-12675389D02*
X14286967Y-12665865D01*
X14286967Y-12665865D02*
X14296491Y-12656341D01*
X14296491Y-12656341D02*
X14315539Y-12627770D01*
X14315539Y-12627770D02*
X14325062Y-12589674D01*
X14325062Y-12589674D02*
X14325062Y-12513484D01*
X14325062Y-12513484D02*
X14315539Y-12494436D01*
X14315539Y-12494436D02*
X14306015Y-12484913D01*
X14306015Y-12484913D02*
X14286967Y-12475389D01*
X14286967Y-12475389D02*
X14248872Y-12475389D01*
X14248872Y-12475389D02*
X14229824Y-12484913D01*
X14229824Y-12484913D02*
X14220301Y-12494436D01*
X14220301Y-12494436D02*
X14210777Y-12513484D01*
X14210777Y-12513484D02*
X14210777Y-12561103D01*
X14210777Y-12561103D02*
X14220301Y-12580151D01*
X14220301Y-12580151D02*
X14229824Y-12589674D01*
X14229824Y-12589674D02*
X14248872Y-12599198D01*
X14248872Y-12599198D02*
X14286967Y-12599198D01*
X14286967Y-12599198D02*
X14306015Y-12589674D01*
X14306015Y-12589674D02*
X14315539Y-12580151D01*
X14315539Y-12580151D02*
X14325062Y-12561103D01*
X14496491Y-12542055D02*
X14496491Y-12675389D01*
X14448872Y-12465865D02*
X14401253Y-12608722D01*
X14401253Y-12608722D02*
X14525062Y-12608722D01*
X14591729Y-12475389D02*
X14591729Y-12513484D01*
X14667920Y-12475389D02*
X14667920Y-12513484D01*
X14963158Y-12751579D02*
X14953634Y-12742055D01*
X14953634Y-12742055D02*
X14934586Y-12713484D01*
X14934586Y-12713484D02*
X14925063Y-12694436D01*
X14925063Y-12694436D02*
X14915539Y-12665865D01*
X14915539Y-12665865D02*
X14906015Y-12618246D01*
X14906015Y-12618246D02*
X14906015Y-12580151D01*
X14906015Y-12580151D02*
X14915539Y-12532532D01*
X14915539Y-12532532D02*
X14925063Y-12503960D01*
X14925063Y-12503960D02*
X14934586Y-12484913D01*
X14934586Y-12484913D02*
X14953634Y-12456341D01*
X14953634Y-12456341D02*
X14963158Y-12446817D01*
X15029824Y-12494436D02*
X15039348Y-12484913D01*
X15039348Y-12484913D02*
X15058396Y-12475389D01*
X15058396Y-12475389D02*
X15106015Y-12475389D01*
X15106015Y-12475389D02*
X15125063Y-12484913D01*
X15125063Y-12484913D02*
X15134586Y-12494436D01*
X15134586Y-12494436D02*
X15144110Y-12513484D01*
X15144110Y-12513484D02*
X15144110Y-12532532D01*
X15144110Y-12532532D02*
X15134586Y-12561103D01*
X15134586Y-12561103D02*
X15020301Y-12675389D01*
X15020301Y-12675389D02*
X15144110Y-12675389D01*
X15382205Y-12675389D02*
X15382205Y-12475389D01*
X15467920Y-12675389D02*
X15467920Y-12570627D01*
X15467920Y-12570627D02*
X15458396Y-12551579D01*
X15458396Y-12551579D02*
X15439348Y-12542055D01*
X15439348Y-12542055D02*
X15410777Y-12542055D01*
X15410777Y-12542055D02*
X15391729Y-12551579D01*
X15391729Y-12551579D02*
X15382205Y-12561103D01*
X15591729Y-12675389D02*
X15572682Y-12665865D01*
X15572682Y-12665865D02*
X15563158Y-12656341D01*
X15563158Y-12656341D02*
X15553634Y-12637293D01*
X15553634Y-12637293D02*
X15553634Y-12580151D01*
X15553634Y-12580151D02*
X15563158Y-12561103D01*
X15563158Y-12561103D02*
X15572682Y-12551579D01*
X15572682Y-12551579D02*
X15591729Y-12542055D01*
X15591729Y-12542055D02*
X15620301Y-12542055D01*
X15620301Y-12542055D02*
X15639348Y-12551579D01*
X15639348Y-12551579D02*
X15648872Y-12561103D01*
X15648872Y-12561103D02*
X15658396Y-12580151D01*
X15658396Y-12580151D02*
X15658396Y-12637293D01*
X15658396Y-12637293D02*
X15648872Y-12656341D01*
X15648872Y-12656341D02*
X15639348Y-12665865D01*
X15639348Y-12665865D02*
X15620301Y-12675389D01*
X15620301Y-12675389D02*
X15591729Y-12675389D01*
X15772682Y-12675389D02*
X15753634Y-12665865D01*
X15753634Y-12665865D02*
X15744110Y-12646817D01*
X15744110Y-12646817D02*
X15744110Y-12475389D01*
X15925063Y-12665865D02*
X15906015Y-12675389D01*
X15906015Y-12675389D02*
X15867920Y-12675389D01*
X15867920Y-12675389D02*
X15848872Y-12665865D01*
X15848872Y-12665865D02*
X15839348Y-12646817D01*
X15839348Y-12646817D02*
X15839348Y-12570627D01*
X15839348Y-12570627D02*
X15848872Y-12551579D01*
X15848872Y-12551579D02*
X15867920Y-12542055D01*
X15867920Y-12542055D02*
X15906015Y-12542055D01*
X15906015Y-12542055D02*
X15925063Y-12551579D01*
X15925063Y-12551579D02*
X15934586Y-12570627D01*
X15934586Y-12570627D02*
X15934586Y-12589674D01*
X15934586Y-12589674D02*
X15839348Y-12608722D01*
X16010777Y-12665865D02*
X16029825Y-12675389D01*
X16029825Y-12675389D02*
X16067920Y-12675389D01*
X16067920Y-12675389D02*
X16086967Y-12665865D01*
X16086967Y-12665865D02*
X16096491Y-12646817D01*
X16096491Y-12646817D02*
X16096491Y-12637293D01*
X16096491Y-12637293D02*
X16086967Y-12618246D01*
X16086967Y-12618246D02*
X16067920Y-12608722D01*
X16067920Y-12608722D02*
X16039348Y-12608722D01*
X16039348Y-12608722D02*
X16020301Y-12599198D01*
X16020301Y-12599198D02*
X16010777Y-12580151D01*
X16010777Y-12580151D02*
X16010777Y-12570627D01*
X16010777Y-12570627D02*
X16020301Y-12551579D01*
X16020301Y-12551579D02*
X16039348Y-12542055D01*
X16039348Y-12542055D02*
X16067920Y-12542055D01*
X16067920Y-12542055D02*
X16086967Y-12551579D01*
X16163158Y-12751579D02*
X16172682Y-12742055D01*
X16172682Y-12742055D02*
X16191729Y-12713484D01*
X16191729Y-12713484D02*
X16201253Y-12694436D01*
X16201253Y-12694436D02*
X16210777Y-12665865D01*
X16210777Y-12665865D02*
X16220301Y-12618246D01*
X16220301Y-12618246D02*
X16220301Y-12580151D01*
X16220301Y-12580151D02*
X16210777Y-12532532D01*
X16210777Y-12532532D02*
X16201253Y-12503960D01*
X16201253Y-12503960D02*
X16191729Y-12484913D01*
X16191729Y-12484913D02*
X16172682Y-12456341D01*
X16172682Y-12456341D02*
X16163158Y-12446817D01*
M02*
