G04 #@! TF.GenerationSoftware,KiCad,Pcbnew,8.0.8*
G04 #@! TF.CreationDate,2025-05-02T10:21:30-04:00*
G04 #@! TF.ProjectId,esp32,65737033-322e-46b6-9963-61645f706362,rev?*
G04 #@! TF.SameCoordinates,Original*
G04 #@! TF.FileFunction,Copper,L1,Top*
G04 #@! TF.FilePolarity,Positive*
%FSLAX46Y46*%
G04 Gerber Fmt 4.6, Leading zero omitted, Abs format (unit mm)*
G04 Created by KiCad (PCBNEW 8.0.8) date 2025-05-02 10:21:30*
%MOMM*%
%LPD*%
G01*
G04 APERTURE LIST*
G04 Aperture macros list*
%AMRoundRect*
0 Rectangle with rounded corners*
0 $1 Rounding radius*
0 $2 $3 $4 $5 $6 $7 $8 $9 X,Y pos of 4 corners*
0 Add a 4 corners polygon primitive as box body*
4,1,4,$2,$3,$4,$5,$6,$7,$8,$9,$2,$3,0*
0 Add four circle primitives for the rounded corners*
1,1,$1+$1,$2,$3*
1,1,$1+$1,$4,$5*
1,1,$1+$1,$6,$7*
1,1,$1+$1,$8,$9*
0 Add four rect primitives between the rounded corners*
20,1,$1+$1,$2,$3,$4,$5,0*
20,1,$1+$1,$4,$5,$6,$7,0*
20,1,$1+$1,$6,$7,$8,$9,0*
20,1,$1+$1,$8,$9,$2,$3,0*%
G04 Aperture macros list end*
G04 #@! TA.AperFunction,ComponentPad*
%ADD10R,2.000000X2.000000*%
G04 #@! TD*
G04 #@! TA.AperFunction,ComponentPad*
%ADD11C,2.000000*%
G04 #@! TD*
G04 #@! TA.AperFunction,SMDPad,CuDef*
%ADD12RoundRect,0.075000X-0.350000X-0.075000X0.350000X-0.075000X0.350000X0.075000X-0.350000X0.075000X0*%
G04 #@! TD*
G04 #@! TA.AperFunction,SMDPad,CuDef*
%ADD13RoundRect,0.075000X0.075000X-0.350000X0.075000X0.350000X-0.075000X0.350000X-0.075000X-0.350000X0*%
G04 #@! TD*
G04 #@! TA.AperFunction,SMDPad,CuDef*
%ADD14R,1.500000X0.900000*%
G04 #@! TD*
G04 #@! TA.AperFunction,SMDPad,CuDef*
%ADD15R,0.900000X1.500000*%
G04 #@! TD*
G04 #@! TA.AperFunction,SMDPad,CuDef*
%ADD16R,1.050000X1.050000*%
G04 #@! TD*
G04 #@! TA.AperFunction,HeatsinkPad*
%ADD17C,0.600000*%
G04 #@! TD*
G04 #@! TA.AperFunction,HeatsinkPad*
%ADD18R,4.200000X4.200000*%
G04 #@! TD*
G04 #@! TA.AperFunction,ComponentPad*
%ADD19C,1.600000*%
G04 #@! TD*
G04 #@! TA.AperFunction,ComponentPad*
%ADD20O,1.600000X1.600000*%
G04 #@! TD*
G04 #@! TA.AperFunction,ViaPad*
%ADD21C,0.600000*%
G04 #@! TD*
G04 #@! TA.AperFunction,Conductor*
%ADD22C,0.200000*%
G04 #@! TD*
G04 APERTURE END LIST*
D10*
X117200000Y-99000000D03*
D11*
X124800000Y-99000000D03*
D12*
X153850000Y-102750000D03*
X153850000Y-103250000D03*
X153850000Y-103750000D03*
X153850000Y-104250000D03*
X153850000Y-104750000D03*
X153850000Y-105250000D03*
D13*
X154550000Y-105950000D03*
X155050000Y-105950000D03*
X155550000Y-105950000D03*
X156050000Y-105950000D03*
X156550000Y-105950000D03*
X157050000Y-105950000D03*
D12*
X157750000Y-105250000D03*
X157750000Y-104750000D03*
X157750000Y-104250000D03*
X157750000Y-103750000D03*
X157750000Y-103250000D03*
X157750000Y-102750000D03*
D13*
X157050000Y-102050000D03*
X156550000Y-102050000D03*
X156050000Y-102050000D03*
X155550000Y-102050000D03*
X155050000Y-102050000D03*
X154550000Y-102050000D03*
D14*
X129692500Y-91660000D03*
X129692500Y-92930000D03*
X129692500Y-94200000D03*
X129692500Y-95470000D03*
X129692500Y-96740000D03*
X129692500Y-98010000D03*
X129692500Y-99280000D03*
X129692500Y-100550000D03*
X129692500Y-101820000D03*
X129692500Y-103090000D03*
X129692500Y-104360000D03*
X129692500Y-105630000D03*
X129692500Y-106900000D03*
X129692500Y-108170000D03*
D15*
X132732500Y-109420000D03*
X134002500Y-109420000D03*
X135272500Y-109420000D03*
X136542500Y-109420000D03*
X137812500Y-109420000D03*
X139082500Y-109420000D03*
X140352500Y-109420000D03*
X141622500Y-109420000D03*
X142892500Y-109420000D03*
X144162500Y-109420000D03*
D14*
X147192500Y-108170000D03*
X147192500Y-106900000D03*
X147192500Y-105630000D03*
X147192500Y-104360000D03*
X147192500Y-103090000D03*
X147192500Y-101820000D03*
X147192500Y-100550000D03*
X147192500Y-99280000D03*
X147192500Y-98010000D03*
X147192500Y-96740000D03*
X147192500Y-95470000D03*
X147192500Y-94200000D03*
X147192500Y-92930000D03*
X147192500Y-91660000D03*
D16*
X136237500Y-97475000D03*
D17*
X136237500Y-98237500D03*
D16*
X136237500Y-99000000D03*
D17*
X136237500Y-99762500D03*
D16*
X136237500Y-100525000D03*
D17*
X137000000Y-97475000D03*
X137000000Y-99000000D03*
X137000000Y-100525000D03*
D16*
X137762500Y-97475000D03*
D17*
X137762500Y-98237500D03*
D16*
X137762500Y-99000000D03*
D18*
X137762500Y-99000000D03*
D17*
X137762500Y-99762500D03*
D16*
X137762500Y-100525000D03*
D17*
X138525000Y-97475000D03*
X138525000Y-99000000D03*
X138525000Y-100525000D03*
D16*
X139287500Y-97475000D03*
D17*
X139287500Y-98237500D03*
D16*
X139287500Y-99000000D03*
D17*
X139287500Y-99762500D03*
D16*
X139287500Y-100525000D03*
D19*
X152190000Y-94000000D03*
D20*
X159810000Y-94000000D03*
D21*
X126300000Y-93700000D03*
X150400000Y-93700000D03*
X149700000Y-100400000D03*
X154300000Y-100500000D03*
X158900000Y-107300000D03*
X144700000Y-107300000D03*
X156500000Y-99000000D03*
X152200000Y-98900000D03*
D22*
X157750000Y-102750000D02*
X158650000Y-102750000D01*
X158650000Y-102750000D02*
X159600000Y-101800000D01*
X117200000Y-99000000D02*
X121000000Y-99000000D01*
X150400000Y-93700000D02*
X151890000Y-93700000D01*
X121000000Y-99000000D02*
X126300000Y-93700000D01*
X151890000Y-93700000D02*
X152190000Y-94000000D01*
X154300000Y-101800000D02*
X154550000Y-102050000D01*
X154300000Y-100500000D02*
X154300000Y-101800000D01*
X147492500Y-98010000D02*
X149700000Y-100217500D01*
X147192500Y-98010000D02*
X147492500Y-98010000D01*
X149700000Y-100217500D02*
X149700000Y-100400000D01*
X129692500Y-92930000D02*
X136346500Y-92930000D01*
X158900000Y-106400000D02*
X157750000Y-105250000D01*
X144700000Y-101283500D02*
X144700000Y-107300000D01*
X136346500Y-92930000D02*
X144700000Y-101283500D01*
X158900000Y-107300000D02*
X158900000Y-106400000D01*
X147500000Y-94200000D02*
X152200000Y-98900000D01*
X155050000Y-100450000D02*
X155050000Y-102050000D01*
X147192500Y-94200000D02*
X147500000Y-94200000D01*
X156500000Y-99000000D02*
X155050000Y-100450000D01*
X147192500Y-101820000D02*
X151990000Y-101820000D01*
X151990000Y-101820000D02*
X159810000Y-94000000D01*
G04 #@! TA.AperFunction,Conductor*
G36*
X162542539Y-90129685D02*
G01*
X162588294Y-90182489D01*
X162599500Y-90234000D01*
X162599500Y-110875500D01*
X162579815Y-110942539D01*
X162527011Y-110988294D01*
X162475500Y-110999500D01*
X114524500Y-110999500D01*
X114457461Y-110979815D01*
X114411706Y-110927011D01*
X114400500Y-110875500D01*
X114400500Y-110217844D01*
X131782500Y-110217844D01*
X131788901Y-110277372D01*
X131788903Y-110277379D01*
X131839145Y-110412086D01*
X131839149Y-110412093D01*
X131925309Y-110527187D01*
X131925312Y-110527190D01*
X132040406Y-110613350D01*
X132040413Y-110613354D01*
X132175120Y-110663596D01*
X132175127Y-110663598D01*
X132234655Y-110669999D01*
X132234672Y-110670000D01*
X132582500Y-110670000D01*
X132582500Y-109570000D01*
X131782500Y-109570000D01*
X131782500Y-110217844D01*
X114400500Y-110217844D01*
X114400500Y-97952135D01*
X115699500Y-97952135D01*
X115699500Y-100047870D01*
X115699501Y-100047876D01*
X115705908Y-100107483D01*
X115756202Y-100242328D01*
X115756206Y-100242335D01*
X115842452Y-100357544D01*
X115842455Y-100357547D01*
X115957664Y-100443793D01*
X115957671Y-100443797D01*
X116092517Y-100494091D01*
X116092516Y-100494091D01*
X116099444Y-100494835D01*
X116152127Y-100500500D01*
X118247872Y-100500499D01*
X118307483Y-100494091D01*
X118442331Y-100443796D01*
X118557546Y-100357546D01*
X118643796Y-100242331D01*
X118694091Y-100107483D01*
X118700500Y-100047873D01*
X118700500Y-99724500D01*
X118720185Y-99657461D01*
X118772989Y-99611706D01*
X118824500Y-99600500D01*
X120913331Y-99600500D01*
X120913347Y-99600501D01*
X120920943Y-99600501D01*
X121079054Y-99600501D01*
X121079057Y-99600501D01*
X121231785Y-99559577D01*
X121283332Y-99529816D01*
X121368716Y-99480520D01*
X121480520Y-99368716D01*
X121480520Y-99368714D01*
X121490724Y-99358511D01*
X121490728Y-99358506D01*
X121849240Y-98999994D01*
X123294859Y-98999994D01*
X123294859Y-99000005D01*
X123315385Y-99247729D01*
X123315387Y-99247738D01*
X123376412Y-99488717D01*
X123476267Y-99716367D01*
X123612227Y-99924470D01*
X123636753Y-99951113D01*
X124356329Y-99231538D01*
X124399901Y-99307007D01*
X124492993Y-99400099D01*
X124568461Y-99443670D01*
X123850418Y-100161712D01*
X123976768Y-100260055D01*
X123976771Y-100260057D01*
X124195385Y-100378364D01*
X124195396Y-100378369D01*
X124430506Y-100459083D01*
X124675707Y-100500000D01*
X124924293Y-100500000D01*
X125169493Y-100459083D01*
X125404603Y-100378369D01*
X125404614Y-100378364D01*
X125623230Y-100260056D01*
X125623235Y-100260052D01*
X125749580Y-100161713D01*
X125749580Y-100161712D01*
X125031538Y-99443670D01*
X125107007Y-99400099D01*
X125200099Y-99307007D01*
X125243670Y-99231539D01*
X125963244Y-99951113D01*
X125963246Y-99951113D01*
X125987769Y-99924475D01*
X126123732Y-99716367D01*
X126223587Y-99488717D01*
X126284612Y-99247738D01*
X126284614Y-99247729D01*
X126305141Y-99000005D01*
X126305141Y-98999994D01*
X126284614Y-98752270D01*
X126284612Y-98752261D01*
X126223587Y-98511282D01*
X126123732Y-98283632D01*
X125987770Y-98075525D01*
X125963245Y-98048885D01*
X125243670Y-98768460D01*
X125200099Y-98692993D01*
X125107007Y-98599901D01*
X125031538Y-98556329D01*
X125749580Y-97838286D01*
X125749580Y-97838285D01*
X125623236Y-97739947D01*
X125623231Y-97739944D01*
X125404614Y-97621635D01*
X125404603Y-97621630D01*
X125169493Y-97540916D01*
X124924293Y-97500000D01*
X124675707Y-97500000D01*
X124430506Y-97540916D01*
X124195396Y-97621630D01*
X124195385Y-97621635D01*
X123976768Y-97739944D01*
X123976765Y-97739946D01*
X123850418Y-97838285D01*
X123850418Y-97838286D01*
X124568461Y-98556329D01*
X124492993Y-98599901D01*
X124399901Y-98692993D01*
X124356329Y-98768460D01*
X123636753Y-98048884D01*
X123636752Y-98048884D01*
X123612237Y-98075516D01*
X123476266Y-98283635D01*
X123376412Y-98511282D01*
X123315387Y-98752261D01*
X123315385Y-98752270D01*
X123294859Y-98999994D01*
X121849240Y-98999994D01*
X126318535Y-94530698D01*
X126379856Y-94497215D01*
X126392311Y-94495163D01*
X126479255Y-94485368D01*
X126649522Y-94425789D01*
X126802262Y-94329816D01*
X126929816Y-94202262D01*
X127025789Y-94049522D01*
X127085368Y-93879255D01*
X127097305Y-93773313D01*
X127105565Y-93700003D01*
X127105565Y-93699996D01*
X127085369Y-93520750D01*
X127085368Y-93520745D01*
X127052870Y-93427872D01*
X127025789Y-93350478D01*
X127023771Y-93347267D01*
X126929815Y-93197737D01*
X126802262Y-93070184D01*
X126649523Y-92974211D01*
X126479254Y-92914631D01*
X126479249Y-92914630D01*
X126300004Y-92894435D01*
X126299996Y-92894435D01*
X126120750Y-92914630D01*
X126120745Y-92914631D01*
X125950476Y-92974211D01*
X125797737Y-93070184D01*
X125670184Y-93197737D01*
X125574210Y-93350478D01*
X125514630Y-93520750D01*
X125504837Y-93607668D01*
X125477770Y-93672082D01*
X125469298Y-93681465D01*
X120787584Y-98363181D01*
X120726261Y-98396666D01*
X120699903Y-98399500D01*
X118824499Y-98399500D01*
X118757460Y-98379815D01*
X118711705Y-98327011D01*
X118700499Y-98275500D01*
X118700499Y-97952129D01*
X118700498Y-97952123D01*
X118700497Y-97952116D01*
X118694091Y-97892517D01*
X118643796Y-97757669D01*
X118643795Y-97757668D01*
X118643793Y-97757664D01*
X118557547Y-97642455D01*
X118557544Y-97642452D01*
X118442335Y-97556206D01*
X118442328Y-97556202D01*
X118307482Y-97505908D01*
X118307483Y-97505908D01*
X118247883Y-97499501D01*
X118247881Y-97499500D01*
X118247873Y-97499500D01*
X118247864Y-97499500D01*
X116152129Y-97499500D01*
X116152123Y-97499501D01*
X116092516Y-97505908D01*
X115957671Y-97556202D01*
X115957664Y-97556206D01*
X115842455Y-97642452D01*
X115842452Y-97642455D01*
X115756206Y-97757664D01*
X115756202Y-97757671D01*
X115705908Y-97892517D01*
X115699501Y-97952116D01*
X115699501Y-97952123D01*
X115699500Y-97952135D01*
X114400500Y-97952135D01*
X114400500Y-92432135D01*
X128442000Y-92432135D01*
X128442000Y-93427870D01*
X128442001Y-93427876D01*
X128448408Y-93487481D01*
X128461159Y-93521669D01*
X128466142Y-93591361D01*
X128461159Y-93608331D01*
X128448408Y-93642518D01*
X128442228Y-93700003D01*
X128442001Y-93702123D01*
X128442000Y-93702135D01*
X128442000Y-94697870D01*
X128442001Y-94697876D01*
X128448408Y-94757481D01*
X128461159Y-94791669D01*
X128466142Y-94861361D01*
X128461159Y-94878331D01*
X128448408Y-94912518D01*
X128442001Y-94972116D01*
X128442001Y-94972123D01*
X128442000Y-94972135D01*
X128442000Y-95967870D01*
X128442001Y-95967876D01*
X128448408Y-96027481D01*
X128461159Y-96061669D01*
X128466142Y-96131361D01*
X128461159Y-96148331D01*
X128448408Y-96182518D01*
X128446108Y-96203916D01*
X128442001Y-96242123D01*
X128442000Y-96242135D01*
X128442000Y-97237870D01*
X128442001Y-97237876D01*
X128448408Y-97297481D01*
X128461159Y-97331669D01*
X128466142Y-97401361D01*
X128461159Y-97418331D01*
X128448408Y-97452518D01*
X128442001Y-97512116D01*
X128442001Y-97512123D01*
X128442000Y-97512135D01*
X128442000Y-98507870D01*
X128442001Y-98507876D01*
X128448408Y-98567481D01*
X128461159Y-98601669D01*
X128466142Y-98671361D01*
X128461159Y-98688331D01*
X128448408Y-98722518D01*
X128445211Y-98752261D01*
X128442001Y-98782123D01*
X128442000Y-98782135D01*
X128442000Y-99777870D01*
X128442001Y-99777876D01*
X128448408Y-99837481D01*
X128461159Y-99871669D01*
X128466142Y-99941361D01*
X128461159Y-99958331D01*
X128448408Y-99992518D01*
X128442177Y-100050478D01*
X128442001Y-100052123D01*
X128442000Y-100052135D01*
X128442000Y-101047870D01*
X128442001Y-101047876D01*
X128448408Y-101107481D01*
X128461159Y-101141669D01*
X128466142Y-101211361D01*
X128461159Y-101228331D01*
X128448408Y-101262518D01*
X128445229Y-101292093D01*
X128442001Y-101322123D01*
X128442000Y-101322135D01*
X128442000Y-102317870D01*
X128442001Y-102317876D01*
X128448408Y-102377481D01*
X128461159Y-102411669D01*
X128466142Y-102481361D01*
X128461159Y-102498331D01*
X128448408Y-102532518D01*
X128442001Y-102592116D01*
X128442001Y-102592123D01*
X128442000Y-102592135D01*
X128442000Y-103587870D01*
X128442001Y-103587876D01*
X128448408Y-103647481D01*
X128461159Y-103681669D01*
X128466142Y-103751361D01*
X128461159Y-103768331D01*
X128448408Y-103802518D01*
X128442001Y-103862116D01*
X128442001Y-103862123D01*
X128442000Y-103862135D01*
X128442000Y-104857870D01*
X128442001Y-104857876D01*
X128448408Y-104917481D01*
X128461159Y-104951669D01*
X128466142Y-105021361D01*
X128461159Y-105038331D01*
X128448408Y-105072518D01*
X128442001Y-105132116D01*
X128442001Y-105132123D01*
X128442000Y-105132135D01*
X128442000Y-106127870D01*
X128442001Y-106127876D01*
X128448408Y-106187481D01*
X128461159Y-106221669D01*
X128466142Y-106291361D01*
X128461159Y-106308331D01*
X128448408Y-106342518D01*
X128442001Y-106402116D01*
X128442001Y-106402123D01*
X128442000Y-106402135D01*
X128442000Y-107397870D01*
X128442001Y-107397876D01*
X128448408Y-107457481D01*
X128461159Y-107491669D01*
X128466142Y-107561361D01*
X128461159Y-107578331D01*
X128448408Y-107612518D01*
X128444430Y-107649522D01*
X128442001Y-107672123D01*
X128442000Y-107672135D01*
X128442000Y-108667870D01*
X128442001Y-108667876D01*
X128448408Y-108727483D01*
X128498702Y-108862328D01*
X128498706Y-108862335D01*
X128584952Y-108977544D01*
X128584955Y-108977547D01*
X128700164Y-109063793D01*
X128700171Y-109063797D01*
X128835017Y-109114091D01*
X128835016Y-109114091D01*
X128841944Y-109114835D01*
X128894627Y-109120500D01*
X130490372Y-109120499D01*
X130549983Y-109114091D01*
X130684831Y-109063796D01*
X130800046Y-108977546D01*
X130886296Y-108862331D01*
X130936591Y-108727483D01*
X130943000Y-108667873D01*
X130943000Y-108622155D01*
X131782500Y-108622155D01*
X131782500Y-109270000D01*
X132582500Y-109270000D01*
X132582500Y-108170000D01*
X132234655Y-108170000D01*
X132175127Y-108176401D01*
X132175120Y-108176403D01*
X132040413Y-108226645D01*
X132040406Y-108226649D01*
X131925312Y-108312809D01*
X131925309Y-108312812D01*
X131839149Y-108427906D01*
X131839145Y-108427913D01*
X131788903Y-108562620D01*
X131788901Y-108562627D01*
X131782500Y-108622155D01*
X130943000Y-108622155D01*
X130942999Y-107672128D01*
X130936591Y-107612517D01*
X130923840Y-107578332D01*
X130918857Y-107508642D01*
X130923840Y-107491669D01*
X130936591Y-107457483D01*
X130943000Y-107397873D01*
X130942999Y-106402128D01*
X130936591Y-106342517D01*
X130923840Y-106308332D01*
X130918857Y-106238642D01*
X130923840Y-106221669D01*
X130936591Y-106187483D01*
X130943000Y-106127873D01*
X130942999Y-105132128D01*
X130936591Y-105072517D01*
X130923840Y-105038332D01*
X130918857Y-104968642D01*
X130923840Y-104951669D01*
X130936591Y-104917483D01*
X130943000Y-104857873D01*
X130942999Y-103862128D01*
X130936591Y-103802517D01*
X130923840Y-103768332D01*
X130918857Y-103698642D01*
X130923840Y-103681669D01*
X130936591Y-103647483D01*
X130943000Y-103587873D01*
X130942999Y-102592128D01*
X130936591Y-102532517D01*
X130923840Y-102498332D01*
X130918857Y-102428642D01*
X130923840Y-102411669D01*
X130936591Y-102377483D01*
X130943000Y-102317873D01*
X130942999Y-101322128D01*
X130936591Y-101262517D01*
X130923840Y-101228332D01*
X130918857Y-101158642D01*
X130923840Y-101141669D01*
X130936591Y-101107483D01*
X130937627Y-101097844D01*
X135212500Y-101097844D01*
X135218901Y-101157372D01*
X135218903Y-101157379D01*
X135269145Y-101292086D01*
X135269149Y-101292093D01*
X135355309Y-101407187D01*
X135355312Y-101407190D01*
X135470406Y-101493350D01*
X135470413Y-101493354D01*
X135605120Y-101543596D01*
X135605127Y-101543598D01*
X135664655Y-101549999D01*
X135664672Y-101550000D01*
X136087500Y-101550000D01*
X136387500Y-101550000D01*
X136810328Y-101550000D01*
X136810344Y-101549999D01*
X136869877Y-101543597D01*
X136869879Y-101543597D01*
X136956665Y-101511227D01*
X137026357Y-101506241D01*
X137043335Y-101511227D01*
X137130121Y-101543597D01*
X137189655Y-101549999D01*
X137189672Y-101550000D01*
X137612500Y-101550000D01*
X137912500Y-101550000D01*
X138335328Y-101550000D01*
X138335344Y-101549999D01*
X138394877Y-101543597D01*
X138394879Y-101543597D01*
X138481665Y-101511227D01*
X138551357Y-101506241D01*
X138568335Y-101511227D01*
X138655121Y-101543597D01*
X138714655Y-101549999D01*
X138714672Y-101550000D01*
X139137500Y-101550000D01*
X139437500Y-101550000D01*
X139860328Y-101550000D01*
X139860344Y-101549999D01*
X139919872Y-101543598D01*
X139919879Y-101543596D01*
X140054586Y-101493354D01*
X140054593Y-101493350D01*
X140169687Y-101407190D01*
X140169690Y-101407187D01*
X140255850Y-101292093D01*
X140255854Y-101292086D01*
X140306096Y-101157379D01*
X140306098Y-101157372D01*
X140312499Y-101097844D01*
X140312500Y-101097827D01*
X140312500Y-100675000D01*
X139437500Y-100675000D01*
X139437500Y-101550000D01*
X139137500Y-101550000D01*
X139137500Y-100675000D01*
X137912500Y-100675000D01*
X137912500Y-101550000D01*
X137612500Y-101550000D01*
X137612500Y-100675000D01*
X136387500Y-100675000D01*
X136387500Y-101550000D01*
X136087500Y-101550000D01*
X136087500Y-100675000D01*
X135212500Y-100675000D01*
X135212500Y-101097844D01*
X130937627Y-101097844D01*
X130943000Y-101047873D01*
X130942999Y-100052128D01*
X130936591Y-99992517D01*
X130923840Y-99958332D01*
X130918857Y-99888642D01*
X130923840Y-99871669D01*
X130936591Y-99837483D01*
X130943000Y-99777873D01*
X130943000Y-99572844D01*
X135212500Y-99572844D01*
X135218901Y-99632372D01*
X135218903Y-99632383D01*
X135251272Y-99719168D01*
X135256256Y-99788859D01*
X135251272Y-99805832D01*
X135218903Y-99892616D01*
X135218901Y-99892627D01*
X135212500Y-99952155D01*
X135212500Y-100375000D01*
X136087500Y-100375000D01*
X136387500Y-100375000D01*
X137612500Y-100375000D01*
X137912500Y-100375000D01*
X139137500Y-100375000D01*
X139437500Y-100375000D01*
X140312500Y-100375000D01*
X140312500Y-99952172D01*
X140312499Y-99952155D01*
X140306097Y-99892622D01*
X140306097Y-99892620D01*
X140273727Y-99805835D01*
X140268741Y-99736143D01*
X140273727Y-99719165D01*
X140306097Y-99632379D01*
X140306097Y-99632377D01*
X140312499Y-99572844D01*
X140312500Y-99572827D01*
X140312500Y-99150000D01*
X139437500Y-99150000D01*
X139437500Y-100375000D01*
X139137500Y-100375000D01*
X139137500Y-99150000D01*
X137912500Y-99150000D01*
X137912500Y-100375000D01*
X137612500Y-100375000D01*
X137612500Y-99150000D01*
X136387500Y-99150000D01*
X136387500Y-100375000D01*
X136087500Y-100375000D01*
X136087500Y-99150000D01*
X135212500Y-99150000D01*
X135212500Y-99572844D01*
X130943000Y-99572844D01*
X130942999Y-98782128D01*
X130936591Y-98722517D01*
X130923840Y-98688332D01*
X130918857Y-98618642D01*
X130923840Y-98601669D01*
X130936591Y-98567483D01*
X130943000Y-98507873D01*
X130943000Y-98047844D01*
X135212500Y-98047844D01*
X135218901Y-98107372D01*
X135218903Y-98107383D01*
X135251272Y-98194168D01*
X135256256Y-98263859D01*
X135251272Y-98280832D01*
X135218903Y-98367616D01*
X135218901Y-98367627D01*
X135212500Y-98427155D01*
X135212500Y-98850000D01*
X136087500Y-98850000D01*
X136387500Y-98850000D01*
X137612500Y-98850000D01*
X137912500Y-98850000D01*
X139137500Y-98850000D01*
X139137500Y-97625000D01*
X137912500Y-97625000D01*
X137912500Y-98850000D01*
X137612500Y-98850000D01*
X137612500Y-97625000D01*
X136387500Y-97625000D01*
X136387500Y-98850000D01*
X136087500Y-98850000D01*
X136087500Y-97625000D01*
X135212500Y-97625000D01*
X135212500Y-98047844D01*
X130943000Y-98047844D01*
X130942999Y-97512128D01*
X130936591Y-97452517D01*
X130923840Y-97418332D01*
X130918857Y-97348642D01*
X130923840Y-97331669D01*
X130936591Y-97297483D01*
X130943000Y-97237873D01*
X130943000Y-96902155D01*
X135212500Y-96902155D01*
X135212500Y-97325000D01*
X136087500Y-97325000D01*
X136387500Y-97325000D01*
X137612500Y-97325000D01*
X137612500Y-96450000D01*
X137189655Y-96450000D01*
X137130127Y-96456401D01*
X137130116Y-96456403D01*
X137043332Y-96488772D01*
X136973641Y-96493756D01*
X136956668Y-96488772D01*
X136869883Y-96456403D01*
X136869872Y-96456401D01*
X136810344Y-96450000D01*
X136387500Y-96450000D01*
X136387500Y-97325000D01*
X136087500Y-97325000D01*
X136087500Y-96450000D01*
X135664655Y-96450000D01*
X135605127Y-96456401D01*
X135605120Y-96456403D01*
X135470413Y-96506645D01*
X135470406Y-96506649D01*
X135355312Y-96592809D01*
X135355309Y-96592812D01*
X135269149Y-96707906D01*
X135269145Y-96707913D01*
X135218903Y-96842620D01*
X135218901Y-96842627D01*
X135212500Y-96902155D01*
X130943000Y-96902155D01*
X130942999Y-96242128D01*
X130936591Y-96182517D01*
X130923840Y-96148332D01*
X130918857Y-96078642D01*
X130923840Y-96061669D01*
X130936591Y-96027483D01*
X130943000Y-95967873D01*
X130942999Y-94972128D01*
X130936591Y-94912517D01*
X130923840Y-94878332D01*
X130918857Y-94808642D01*
X130923840Y-94791669D01*
X130936591Y-94757483D01*
X130943000Y-94697873D01*
X130942999Y-93702128D01*
X130939304Y-93667753D01*
X130951711Y-93598994D01*
X130999322Y-93547857D01*
X131062594Y-93530500D01*
X136046403Y-93530500D01*
X136113442Y-93550185D01*
X136134084Y-93566819D01*
X138805584Y-96238319D01*
X138839069Y-96299642D01*
X138834085Y-96369334D01*
X138792213Y-96425267D01*
X138726749Y-96449684D01*
X138717903Y-96450000D01*
X138714655Y-96450000D01*
X138655127Y-96456401D01*
X138655116Y-96456403D01*
X138568332Y-96488772D01*
X138498641Y-96493756D01*
X138481668Y-96488772D01*
X138394883Y-96456403D01*
X138394872Y-96456401D01*
X138335344Y-96450000D01*
X137912500Y-96450000D01*
X137912500Y-97325000D01*
X139163500Y-97325000D01*
X139230539Y-97344685D01*
X139276294Y-97397489D01*
X139287500Y-97449000D01*
X139287500Y-97475000D01*
X139313500Y-97475000D01*
X139380539Y-97494685D01*
X139426294Y-97547489D01*
X139437500Y-97599000D01*
X139437500Y-98850000D01*
X140312500Y-98850000D01*
X140312500Y-98427172D01*
X140312499Y-98427155D01*
X140306097Y-98367622D01*
X140306097Y-98367620D01*
X140273727Y-98280835D01*
X140268741Y-98211143D01*
X140273727Y-98194165D01*
X140306097Y-98107379D01*
X140306097Y-98107377D01*
X140312499Y-98047844D01*
X140312500Y-98047827D01*
X140312500Y-98044597D01*
X140332185Y-97977558D01*
X140384989Y-97931803D01*
X140454147Y-97921859D01*
X140517703Y-97950884D01*
X140524181Y-97956916D01*
X144063181Y-101495916D01*
X144096666Y-101557239D01*
X144099500Y-101583597D01*
X144099500Y-106717587D01*
X144079815Y-106784626D01*
X144072450Y-106794896D01*
X144070186Y-106797734D01*
X143974211Y-106950476D01*
X143914631Y-107120745D01*
X143914630Y-107120750D01*
X143894435Y-107299996D01*
X143894435Y-107300003D01*
X143914630Y-107479249D01*
X143914631Y-107479254D01*
X143974211Y-107649523D01*
X144070184Y-107802262D01*
X144197737Y-107929815D01*
X144197740Y-107929817D01*
X144214751Y-107940506D01*
X144261043Y-107992840D01*
X144271692Y-108061893D01*
X144243317Y-108125742D01*
X144184928Y-108164114D01*
X144148780Y-108169500D01*
X143664629Y-108169500D01*
X143664623Y-108169501D01*
X143605018Y-108175908D01*
X143570831Y-108188659D01*
X143501139Y-108193642D01*
X143484169Y-108188659D01*
X143466640Y-108182121D01*
X143449983Y-108175909D01*
X143449982Y-108175908D01*
X143390383Y-108169501D01*
X143390381Y-108169500D01*
X143390373Y-108169500D01*
X143390364Y-108169500D01*
X142394629Y-108169500D01*
X142394623Y-108169501D01*
X142335018Y-108175908D01*
X142300831Y-108188659D01*
X142231139Y-108193642D01*
X142214169Y-108188659D01*
X142196640Y-108182121D01*
X142179983Y-108175909D01*
X142179982Y-108175908D01*
X142120383Y-108169501D01*
X142120381Y-108169500D01*
X142120373Y-108169500D01*
X142120364Y-108169500D01*
X141124629Y-108169500D01*
X141124623Y-108169501D01*
X141065018Y-108175908D01*
X141030831Y-108188659D01*
X140961139Y-108193642D01*
X140944169Y-108188659D01*
X140926640Y-108182121D01*
X140909983Y-108175909D01*
X140909982Y-108175908D01*
X140850383Y-108169501D01*
X140850381Y-108169500D01*
X140850373Y-108169500D01*
X140850364Y-108169500D01*
X139854629Y-108169500D01*
X139854623Y-108169501D01*
X139795018Y-108175908D01*
X139760831Y-108188659D01*
X139691139Y-108193642D01*
X139674169Y-108188659D01*
X139656640Y-108182121D01*
X139639983Y-108175909D01*
X139639982Y-108175908D01*
X139580383Y-108169501D01*
X139580381Y-108169500D01*
X139580373Y-108169500D01*
X139580364Y-108169500D01*
X138584629Y-108169500D01*
X138584623Y-108169501D01*
X138525018Y-108175908D01*
X138490831Y-108188659D01*
X138421139Y-108193642D01*
X138404169Y-108188659D01*
X138386640Y-108182121D01*
X138369983Y-108175909D01*
X138369982Y-108175908D01*
X138310383Y-108169501D01*
X138310381Y-108169500D01*
X138310373Y-108169500D01*
X138310364Y-108169500D01*
X137314629Y-108169500D01*
X137314623Y-108169501D01*
X137255018Y-108175908D01*
X137220831Y-108188659D01*
X137151139Y-108193642D01*
X137134169Y-108188659D01*
X137116640Y-108182121D01*
X137099983Y-108175909D01*
X137099982Y-108175908D01*
X137040383Y-108169501D01*
X137040381Y-108169500D01*
X137040373Y-108169500D01*
X137040364Y-108169500D01*
X136044629Y-108169500D01*
X136044623Y-108169501D01*
X135985018Y-108175908D01*
X135950831Y-108188659D01*
X135881139Y-108193642D01*
X135864169Y-108188659D01*
X135846640Y-108182121D01*
X135829983Y-108175909D01*
X135829982Y-108175908D01*
X135770383Y-108169501D01*
X135770381Y-108169500D01*
X135770373Y-108169500D01*
X135770364Y-108169500D01*
X134774629Y-108169500D01*
X134774623Y-108169501D01*
X134715018Y-108175908D01*
X134680831Y-108188659D01*
X134611139Y-108193642D01*
X134594169Y-108188659D01*
X134576640Y-108182121D01*
X134559983Y-108175909D01*
X134559982Y-108175908D01*
X134500383Y-108169501D01*
X134500381Y-108169500D01*
X134500373Y-108169500D01*
X134500364Y-108169500D01*
X133504629Y-108169500D01*
X133504623Y-108169501D01*
X133445020Y-108175908D01*
X133445017Y-108175908D01*
X133445017Y-108175909D01*
X133410120Y-108188925D01*
X133410117Y-108188926D01*
X133340425Y-108193909D01*
X133323452Y-108188925D01*
X133289879Y-108176403D01*
X133289872Y-108176401D01*
X133230344Y-108170000D01*
X132882500Y-108170000D01*
X132882500Y-110670000D01*
X133230328Y-110670000D01*
X133230344Y-110669999D01*
X133289872Y-110663598D01*
X133289875Y-110663597D01*
X133323449Y-110651075D01*
X133393140Y-110646089D01*
X133410119Y-110651075D01*
X133445011Y-110664089D01*
X133445012Y-110664089D01*
X133445017Y-110664091D01*
X133504627Y-110670500D01*
X134500372Y-110670499D01*
X134559983Y-110664091D01*
X134594167Y-110651340D01*
X134663858Y-110646357D01*
X134680827Y-110651338D01*
X134715017Y-110664091D01*
X134774627Y-110670500D01*
X135770372Y-110670499D01*
X135829983Y-110664091D01*
X135864167Y-110651340D01*
X135933858Y-110646357D01*
X135950827Y-110651338D01*
X135985017Y-110664091D01*
X136044627Y-110670500D01*
X137040372Y-110670499D01*
X137099983Y-110664091D01*
X137134167Y-110651340D01*
X137203858Y-110646357D01*
X137220827Y-110651338D01*
X137255017Y-110664091D01*
X137314627Y-110670500D01*
X138310372Y-110670499D01*
X138369983Y-110664091D01*
X138404167Y-110651340D01*
X138473858Y-110646357D01*
X138490827Y-110651338D01*
X138525017Y-110664091D01*
X138584627Y-110670500D01*
X139580372Y-110670499D01*
X139639983Y-110664091D01*
X139674167Y-110651340D01*
X139743858Y-110646357D01*
X139760827Y-110651338D01*
X139795017Y-110664091D01*
X139854627Y-110670500D01*
X140850372Y-110670499D01*
X140909983Y-110664091D01*
X140944167Y-110651340D01*
X141013858Y-110646357D01*
X141030827Y-110651338D01*
X141065017Y-110664091D01*
X141124627Y-110670500D01*
X142120372Y-110670499D01*
X142179983Y-110664091D01*
X142214167Y-110651340D01*
X142283858Y-110646357D01*
X142300827Y-110651338D01*
X142335017Y-110664091D01*
X142394627Y-110670500D01*
X143390372Y-110670499D01*
X143449983Y-110664091D01*
X143484167Y-110651340D01*
X143553858Y-110646357D01*
X143570827Y-110651338D01*
X143605017Y-110664091D01*
X143664627Y-110670500D01*
X144660372Y-110670499D01*
X144719983Y-110664091D01*
X144854831Y-110613796D01*
X144970046Y-110527546D01*
X145056296Y-110412331D01*
X145106591Y-110277483D01*
X145113000Y-110217873D01*
X145112999Y-108622128D01*
X145106591Y-108562517D01*
X145056384Y-108427906D01*
X145056297Y-108427671D01*
X145056293Y-108427664D01*
X144970047Y-108312455D01*
X144920689Y-108275505D01*
X144878819Y-108219571D01*
X144873835Y-108149879D01*
X144907321Y-108088556D01*
X144954047Y-108059197D01*
X145049522Y-108025789D01*
X145202262Y-107929816D01*
X145329816Y-107802262D01*
X145425789Y-107649522D01*
X145485368Y-107479255D01*
X145487821Y-107457483D01*
X145505565Y-107300003D01*
X145505565Y-107299996D01*
X145485369Y-107120750D01*
X145485368Y-107120745D01*
X145425788Y-106950476D01*
X145378677Y-106875500D01*
X145329816Y-106797738D01*
X145329814Y-106797736D01*
X145329813Y-106797734D01*
X145327550Y-106794896D01*
X145326659Y-106792715D01*
X145326111Y-106791842D01*
X145326264Y-106791745D01*
X145301144Y-106730209D01*
X145300500Y-106717587D01*
X145300500Y-101372559D01*
X145300501Y-101372546D01*
X145300501Y-101204445D01*
X145300501Y-101204443D01*
X145259577Y-101051715D01*
X145194664Y-100939283D01*
X145180520Y-100914784D01*
X145180518Y-100914782D01*
X145180517Y-100914780D01*
X145064397Y-100798660D01*
X145064374Y-100798639D01*
X136834090Y-92568355D01*
X136834088Y-92568352D01*
X136715217Y-92449481D01*
X136715216Y-92449480D01*
X136685173Y-92432135D01*
X145942000Y-92432135D01*
X145942000Y-93427870D01*
X145942001Y-93427876D01*
X145948408Y-93487481D01*
X145961159Y-93521669D01*
X145966142Y-93591361D01*
X145961159Y-93608331D01*
X145948408Y-93642518D01*
X145942228Y-93700003D01*
X145942001Y-93702123D01*
X145942000Y-93702135D01*
X145942000Y-94697870D01*
X145942001Y-94697876D01*
X145948408Y-94757481D01*
X145961159Y-94791669D01*
X145966142Y-94861361D01*
X145961159Y-94878331D01*
X145948408Y-94912518D01*
X145942001Y-94972116D01*
X145942001Y-94972123D01*
X145942000Y-94972135D01*
X145942000Y-95967870D01*
X145942001Y-95967876D01*
X145948408Y-96027481D01*
X145961159Y-96061669D01*
X145966142Y-96131361D01*
X145961159Y-96148331D01*
X145948408Y-96182518D01*
X145946108Y-96203916D01*
X145942001Y-96242123D01*
X145942000Y-96242135D01*
X145942000Y-97237870D01*
X145942001Y-97237876D01*
X145948408Y-97297481D01*
X145961159Y-97331669D01*
X145966142Y-97401361D01*
X145961159Y-97418331D01*
X145948408Y-97452518D01*
X145942001Y-97512116D01*
X145942001Y-97512123D01*
X145942000Y-97512135D01*
X145942000Y-98507870D01*
X145942001Y-98507876D01*
X145948408Y-98567481D01*
X145961159Y-98601669D01*
X145966142Y-98671361D01*
X145961159Y-98688331D01*
X145948408Y-98722518D01*
X145945211Y-98752261D01*
X145942001Y-98782123D01*
X145942000Y-98782135D01*
X145942000Y-99777870D01*
X145942001Y-99777876D01*
X145948408Y-99837481D01*
X145961159Y-99871669D01*
X145966142Y-99941361D01*
X145961159Y-99958331D01*
X145948408Y-99992518D01*
X145942177Y-100050478D01*
X145942001Y-100052123D01*
X145942000Y-100052135D01*
X145942000Y-101047870D01*
X145942001Y-101047876D01*
X145948408Y-101107481D01*
X145961159Y-101141669D01*
X145966142Y-101211361D01*
X145961159Y-101228331D01*
X145948408Y-101262518D01*
X145945229Y-101292093D01*
X145942001Y-101322123D01*
X145942000Y-101322135D01*
X145942000Y-102317870D01*
X145942001Y-102317876D01*
X145948408Y-102377481D01*
X145961159Y-102411669D01*
X145966142Y-102481361D01*
X145961159Y-102498331D01*
X145948408Y-102532518D01*
X145942001Y-102592116D01*
X145942001Y-102592123D01*
X145942000Y-102592135D01*
X145942000Y-103587870D01*
X145942001Y-103587876D01*
X145948408Y-103647481D01*
X145961159Y-103681669D01*
X145966142Y-103751361D01*
X145961159Y-103768331D01*
X145948408Y-103802518D01*
X145942001Y-103862116D01*
X145942001Y-103862123D01*
X145942000Y-103862135D01*
X145942000Y-104857870D01*
X145942001Y-104857876D01*
X145948408Y-104917481D01*
X145961159Y-104951669D01*
X145966142Y-105021361D01*
X145961159Y-105038331D01*
X145948408Y-105072518D01*
X145942001Y-105132116D01*
X145942001Y-105132123D01*
X145942000Y-105132135D01*
X145942000Y-106127870D01*
X145942001Y-106127876D01*
X145948408Y-106187481D01*
X145961159Y-106221669D01*
X145966142Y-106291361D01*
X145961159Y-106308331D01*
X145948408Y-106342518D01*
X145942001Y-106402116D01*
X145942001Y-106402123D01*
X145942000Y-106402135D01*
X145942000Y-107397870D01*
X145942001Y-107397876D01*
X145948408Y-107457481D01*
X145961159Y-107491669D01*
X145966142Y-107561361D01*
X145961159Y-107578331D01*
X145948408Y-107612518D01*
X145944430Y-107649522D01*
X145942001Y-107672123D01*
X145942000Y-107672135D01*
X145942000Y-108667870D01*
X145942001Y-108667876D01*
X145948408Y-108727483D01*
X145998702Y-108862328D01*
X145998706Y-108862335D01*
X146084952Y-108977544D01*
X146084955Y-108977547D01*
X146200164Y-109063793D01*
X146200171Y-109063797D01*
X146335017Y-109114091D01*
X146335016Y-109114091D01*
X146341944Y-109114835D01*
X146394627Y-109120500D01*
X147990372Y-109120499D01*
X148049983Y-109114091D01*
X148184831Y-109063796D01*
X148300046Y-108977546D01*
X148386296Y-108862331D01*
X148436591Y-108727483D01*
X148443000Y-108667873D01*
X148442999Y-107672128D01*
X148436591Y-107612517D01*
X148423840Y-107578332D01*
X148418857Y-107508642D01*
X148423840Y-107491669D01*
X148436591Y-107457483D01*
X148443000Y-107397873D01*
X148442999Y-106402128D01*
X148436591Y-106342517D01*
X148423840Y-106308332D01*
X148418857Y-106238642D01*
X148423840Y-106221669D01*
X148436591Y-106187483D01*
X148443000Y-106127873D01*
X148442999Y-105132128D01*
X148436591Y-105072517D01*
X148423840Y-105038332D01*
X148418857Y-104968642D01*
X148423840Y-104951669D01*
X148436591Y-104917483D01*
X148443000Y-104857873D01*
X148442999Y-103862128D01*
X148436591Y-103802517D01*
X148423840Y-103768332D01*
X148418857Y-103698642D01*
X148423840Y-103681669D01*
X148436591Y-103647483D01*
X148443000Y-103587873D01*
X148442999Y-102592128D01*
X148439304Y-102557753D01*
X148451711Y-102488994D01*
X148499322Y-102437857D01*
X148562594Y-102420500D01*
X151903331Y-102420500D01*
X151903347Y-102420501D01*
X151910943Y-102420501D01*
X152069054Y-102420501D01*
X152069057Y-102420501D01*
X152221785Y-102379577D01*
X152271904Y-102350639D01*
X152358716Y-102300520D01*
X152470520Y-102188716D01*
X152470520Y-102188714D01*
X152480728Y-102178507D01*
X152480730Y-102178504D01*
X153487819Y-101171415D01*
X153549142Y-101137930D01*
X153618834Y-101142914D01*
X153674767Y-101184786D01*
X153699184Y-101250250D01*
X153699500Y-101259096D01*
X153699500Y-101713330D01*
X153699499Y-101713348D01*
X153699499Y-101879054D01*
X153699498Y-101879054D01*
X153716742Y-101943406D01*
X153715079Y-102013256D01*
X153675917Y-102071119D01*
X153611688Y-102098623D01*
X153596967Y-102099500D01*
X153462272Y-102099500D01*
X153349764Y-102114313D01*
X153349763Y-102114313D01*
X153209770Y-102172300D01*
X153209767Y-102172301D01*
X153209767Y-102172302D01*
X153089549Y-102264549D01*
X153001285Y-102379577D01*
X152997300Y-102384770D01*
X152939313Y-102524763D01*
X152939313Y-102524764D01*
X152924500Y-102637272D01*
X152924500Y-102862727D01*
X152940374Y-102983292D01*
X152937399Y-102983683D01*
X152937399Y-103016316D01*
X152940374Y-103016708D01*
X152924500Y-103137272D01*
X152924500Y-103362727D01*
X152940374Y-103483292D01*
X152937399Y-103483683D01*
X152937399Y-103516316D01*
X152940374Y-103516708D01*
X152924500Y-103637272D01*
X152924500Y-103862727D01*
X152940374Y-103983292D01*
X152937399Y-103983683D01*
X152937399Y-104016316D01*
X152940374Y-104016708D01*
X152924500Y-104137272D01*
X152924500Y-104362727D01*
X152940374Y-104483292D01*
X152937399Y-104483683D01*
X152937399Y-104516316D01*
X152940374Y-104516708D01*
X152924500Y-104637272D01*
X152924500Y-104862727D01*
X152940374Y-104983292D01*
X152937399Y-104983683D01*
X152937399Y-105016316D01*
X152940374Y-105016708D01*
X152939313Y-105024762D01*
X152939313Y-105024764D01*
X152935938Y-105050393D01*
X152924500Y-105137272D01*
X152924500Y-105362727D01*
X152937461Y-105461171D01*
X152939313Y-105475236D01*
X152997302Y-105615233D01*
X153089549Y-105735451D01*
X153209767Y-105827698D01*
X153349764Y-105885687D01*
X153462280Y-105900500D01*
X153775500Y-105900500D01*
X153842539Y-105920185D01*
X153888294Y-105972989D01*
X153899500Y-106024500D01*
X153899500Y-106337727D01*
X153914313Y-106450235D01*
X153914313Y-106450236D01*
X153930394Y-106489060D01*
X153972302Y-106590233D01*
X154064549Y-106710451D01*
X154184767Y-106802698D01*
X154324764Y-106860687D01*
X154431586Y-106874750D01*
X154437264Y-106875498D01*
X154437280Y-106875500D01*
X154437287Y-106875500D01*
X154662713Y-106875500D01*
X154662720Y-106875500D01*
X154775236Y-106860687D01*
X154775236Y-106860686D01*
X154783295Y-106859626D01*
X154783698Y-106862689D01*
X154816302Y-106862689D01*
X154816705Y-106859626D01*
X154824763Y-106860686D01*
X154824764Y-106860687D01*
X154937280Y-106875500D01*
X154937287Y-106875500D01*
X155162713Y-106875500D01*
X155162720Y-106875500D01*
X155275236Y-106860687D01*
X155275236Y-106860686D01*
X155283295Y-106859626D01*
X155283698Y-106862689D01*
X155316302Y-106862689D01*
X155316705Y-106859626D01*
X155324763Y-106860686D01*
X155324764Y-106860687D01*
X155437280Y-106875500D01*
X155437287Y-106875500D01*
X155662713Y-106875500D01*
X155662720Y-106875500D01*
X155775236Y-106860687D01*
X155775236Y-106860686D01*
X155783295Y-106859626D01*
X155783698Y-106862689D01*
X155816302Y-106862689D01*
X155816705Y-106859626D01*
X155824763Y-106860686D01*
X155824764Y-106860687D01*
X155937280Y-106875500D01*
X155937287Y-106875500D01*
X156162713Y-106875500D01*
X156162720Y-106875500D01*
X156275236Y-106860687D01*
X156275236Y-106860686D01*
X156283295Y-106859626D01*
X156283698Y-106862689D01*
X156316302Y-106862689D01*
X156316705Y-106859626D01*
X156324763Y-106860686D01*
X156324764Y-106860687D01*
X156437280Y-106875500D01*
X156437287Y-106875500D01*
X156662713Y-106875500D01*
X156662720Y-106875500D01*
X156775236Y-106860687D01*
X156775236Y-106860686D01*
X156783295Y-106859626D01*
X156783698Y-106862689D01*
X156816302Y-106862689D01*
X156816705Y-106859626D01*
X156824763Y-106860686D01*
X156824764Y-106860687D01*
X156937280Y-106875500D01*
X156937287Y-106875500D01*
X157162713Y-106875500D01*
X157162720Y-106875500D01*
X157275236Y-106860687D01*
X157415233Y-106802698D01*
X157535451Y-106710451D01*
X157627698Y-106590233D01*
X157685687Y-106450236D01*
X157700500Y-106337720D01*
X157701030Y-106333695D01*
X157702758Y-106333922D01*
X157724285Y-106275004D01*
X157779937Y-106232758D01*
X157849593Y-106227306D01*
X157911140Y-106260378D01*
X157911730Y-106260965D01*
X158263181Y-106612416D01*
X158296666Y-106673739D01*
X158299500Y-106700097D01*
X158299500Y-106717587D01*
X158279815Y-106784626D01*
X158272450Y-106794896D01*
X158270186Y-106797734D01*
X158174211Y-106950476D01*
X158114631Y-107120745D01*
X158114630Y-107120750D01*
X158094435Y-107299996D01*
X158094435Y-107300003D01*
X158114630Y-107479249D01*
X158114631Y-107479254D01*
X158174211Y-107649523D01*
X158270184Y-107802262D01*
X158397738Y-107929816D01*
X158550478Y-108025789D01*
X158720745Y-108085368D01*
X158720750Y-108085369D01*
X158899996Y-108105565D01*
X158900000Y-108105565D01*
X158900004Y-108105565D01*
X159079249Y-108085369D01*
X159079252Y-108085368D01*
X159079255Y-108085368D01*
X159249522Y-108025789D01*
X159402262Y-107929816D01*
X159529816Y-107802262D01*
X159625789Y-107649522D01*
X159685368Y-107479255D01*
X159687821Y-107457483D01*
X159705565Y-107300003D01*
X159705565Y-107299996D01*
X159685369Y-107120750D01*
X159685368Y-107120745D01*
X159625788Y-106950476D01*
X159578677Y-106875500D01*
X159529816Y-106797738D01*
X159529814Y-106797736D01*
X159529813Y-106797734D01*
X159527550Y-106794896D01*
X159526659Y-106792715D01*
X159526111Y-106791842D01*
X159526264Y-106791745D01*
X159501144Y-106730209D01*
X159500500Y-106717587D01*
X159500500Y-106489060D01*
X159500501Y-106489047D01*
X159500501Y-106320944D01*
X159497122Y-106308334D01*
X159459577Y-106168216D01*
X159436285Y-106127872D01*
X159380524Y-106031290D01*
X159380518Y-106031282D01*
X158711819Y-105362583D01*
X158678334Y-105301260D01*
X158675500Y-105274902D01*
X158675500Y-105137286D01*
X158675500Y-105137280D01*
X158660687Y-105024764D01*
X158660686Y-105024763D01*
X158659626Y-105016705D01*
X158662689Y-105016301D01*
X158662689Y-104983698D01*
X158659626Y-104983295D01*
X158661555Y-104968642D01*
X158675500Y-104862720D01*
X158675500Y-104637280D01*
X158660687Y-104524764D01*
X158660686Y-104524763D01*
X158659626Y-104516705D01*
X158662689Y-104516301D01*
X158662689Y-104483698D01*
X158659626Y-104483295D01*
X158660687Y-104475236D01*
X158675500Y-104362720D01*
X158675500Y-104137280D01*
X158660687Y-104024764D01*
X158660686Y-104024763D01*
X158659626Y-104016705D01*
X158662689Y-104016301D01*
X158662689Y-103983698D01*
X158659626Y-103983295D01*
X158660687Y-103975236D01*
X158675500Y-103862720D01*
X158675500Y-103637280D01*
X158660687Y-103524764D01*
X158660686Y-103524763D01*
X158659626Y-103516705D01*
X158662689Y-103516301D01*
X158662689Y-103483698D01*
X158659626Y-103483295D01*
X158660687Y-103475236D01*
X158675500Y-103362720D01*
X158675500Y-103137280D01*
X158660687Y-103024764D01*
X158660686Y-103024763D01*
X158659626Y-103016705D01*
X158661406Y-103016470D01*
X158659196Y-102982729D01*
X158670088Y-102900000D01*
X158668198Y-102897845D01*
X158608497Y-102880315D01*
X158577160Y-102851486D01*
X158537259Y-102799486D01*
X158512065Y-102734317D01*
X158526103Y-102665872D01*
X158574917Y-102615883D01*
X158635635Y-102600000D01*
X158670088Y-102600000D01*
X158670088Y-102599999D01*
X158660199Y-102524896D01*
X158660198Y-102524891D01*
X158602263Y-102385021D01*
X158510094Y-102264905D01*
X158389978Y-102172736D01*
X158250108Y-102114801D01*
X158250104Y-102114800D01*
X158137697Y-102100000D01*
X157889873Y-102100000D01*
X157850858Y-102121304D01*
X157781166Y-102116320D01*
X157725233Y-102074448D01*
X157700816Y-102008984D01*
X157700500Y-102000138D01*
X157700500Y-101662286D01*
X157700499Y-101662272D01*
X157690141Y-101583597D01*
X157685687Y-101549764D01*
X157627698Y-101409767D01*
X157535451Y-101289549D01*
X157415233Y-101197302D01*
X157415229Y-101197300D01*
X157321900Y-101158642D01*
X157275236Y-101139313D01*
X157258313Y-101137085D01*
X157162727Y-101124500D01*
X157162720Y-101124500D01*
X156937280Y-101124500D01*
X156937272Y-101124500D01*
X156850393Y-101135938D01*
X156824764Y-101139313D01*
X156824762Y-101139313D01*
X156816708Y-101140374D01*
X156816316Y-101137399D01*
X156783684Y-101137399D01*
X156783292Y-101140374D01*
X156775237Y-101139313D01*
X156775236Y-101139313D01*
X156746271Y-101135499D01*
X156662727Y-101124500D01*
X156662720Y-101124500D01*
X156437280Y-101124500D01*
X156437272Y-101124500D01*
X156350393Y-101135938D01*
X156324764Y-101139313D01*
X156324762Y-101139313D01*
X156316708Y-101140374D01*
X156316316Y-101137399D01*
X156283684Y-101137399D01*
X156283292Y-101140374D01*
X156275237Y-101139313D01*
X156275236Y-101139313D01*
X156246271Y-101135499D01*
X156162727Y-101124500D01*
X156162720Y-101124500D01*
X155937280Y-101124500D01*
X155937272Y-101124500D01*
X155850393Y-101135938D01*
X155824764Y-101139313D01*
X155824762Y-101139313D01*
X155816708Y-101140374D01*
X155816316Y-101137399D01*
X155783682Y-101137399D01*
X155783290Y-101140374D01*
X155775237Y-101139313D01*
X155775236Y-101139313D01*
X155758311Y-101137084D01*
X155694416Y-101108817D01*
X155655946Y-101050491D01*
X155650500Y-101014146D01*
X155650500Y-100750096D01*
X155670185Y-100683057D01*
X155686815Y-100662419D01*
X156518535Y-99830698D01*
X156579856Y-99797215D01*
X156592311Y-99795163D01*
X156679255Y-99785368D01*
X156849522Y-99725789D01*
X157002262Y-99629816D01*
X157129816Y-99502262D01*
X157225789Y-99349522D01*
X157285368Y-99179255D01*
X157285369Y-99179249D01*
X157305565Y-99000003D01*
X157305565Y-98999996D01*
X157285369Y-98820750D01*
X157285368Y-98820745D01*
X157271851Y-98782116D01*
X157225789Y-98650478D01*
X157129816Y-98497738D01*
X157002262Y-98370184D01*
X156864520Y-98283635D01*
X156849519Y-98274209D01*
X156691697Y-98218984D01*
X156634921Y-98178263D01*
X156609174Y-98113310D01*
X156622630Y-98044748D01*
X156644968Y-98014265D01*
X159367294Y-95291939D01*
X159428615Y-95258456D01*
X159487066Y-95259847D01*
X159506604Y-95265082D01*
X159583308Y-95285635D01*
X159745230Y-95299801D01*
X159809998Y-95305468D01*
X159810000Y-95305468D01*
X159810002Y-95305468D01*
X159866673Y-95300509D01*
X160036692Y-95285635D01*
X160256496Y-95226739D01*
X160462734Y-95130568D01*
X160649139Y-95000047D01*
X160810047Y-94839139D01*
X160940568Y-94652734D01*
X161036739Y-94446496D01*
X161095635Y-94226692D01*
X161115468Y-94000000D01*
X161095635Y-93773308D01*
X161036739Y-93553504D01*
X160940568Y-93347266D01*
X160810047Y-93160861D01*
X160810045Y-93160858D01*
X160649141Y-92999954D01*
X160462734Y-92869432D01*
X160462732Y-92869431D01*
X160256497Y-92773261D01*
X160256488Y-92773258D01*
X160036697Y-92714366D01*
X160036693Y-92714365D01*
X160036692Y-92714365D01*
X160036691Y-92714364D01*
X160036686Y-92714364D01*
X159810002Y-92694532D01*
X159809998Y-92694532D01*
X159583313Y-92714364D01*
X159583302Y-92714366D01*
X159363511Y-92773258D01*
X159363502Y-92773261D01*
X159157267Y-92869431D01*
X159157265Y-92869432D01*
X158970858Y-92999954D01*
X158809954Y-93160858D01*
X158679432Y-93347265D01*
X158679431Y-93347267D01*
X158583261Y-93553502D01*
X158583258Y-93553511D01*
X158524366Y-93773302D01*
X158524364Y-93773313D01*
X158504532Y-93999998D01*
X158504532Y-94000001D01*
X158524364Y-94226686D01*
X158524366Y-94226697D01*
X158550152Y-94322931D01*
X158548489Y-94392781D01*
X158518058Y-94442705D01*
X151777584Y-101183181D01*
X151716261Y-101216666D01*
X151689903Y-101219500D01*
X150311940Y-101219500D01*
X150244901Y-101199815D01*
X150199146Y-101147011D01*
X150189202Y-101077853D01*
X150218227Y-101014297D01*
X150224259Y-101007819D01*
X150237930Y-100994148D01*
X150329816Y-100902262D01*
X150425789Y-100749522D01*
X150485368Y-100579255D01*
X150485369Y-100579249D01*
X150505565Y-100400003D01*
X150505565Y-100399996D01*
X150485369Y-100220750D01*
X150485368Y-100220745D01*
X150445736Y-100107483D01*
X150425789Y-100050478D01*
X150424158Y-100047883D01*
X150364019Y-99952172D01*
X150329816Y-99897738D01*
X150202262Y-99770184D01*
X150131608Y-99725789D01*
X150049524Y-99674212D01*
X150049523Y-99674211D01*
X150009202Y-99660102D01*
X149962477Y-99630742D01*
X148479318Y-98147583D01*
X148445833Y-98086260D01*
X148442999Y-98059902D01*
X148442999Y-97512129D01*
X148442998Y-97512123D01*
X148442997Y-97512116D01*
X148436591Y-97452517D01*
X148423840Y-97418332D01*
X148418857Y-97348642D01*
X148423840Y-97331669D01*
X148436591Y-97297483D01*
X148443000Y-97237873D01*
X148442999Y-96291596D01*
X148462683Y-96224558D01*
X148515487Y-96178803D01*
X148584646Y-96168859D01*
X148648202Y-96197884D01*
X148654680Y-96203916D01*
X151369298Y-98918534D01*
X151402783Y-98979857D01*
X151404837Y-98992331D01*
X151414630Y-99079249D01*
X151474210Y-99249521D01*
X151510331Y-99307007D01*
X151570184Y-99402262D01*
X151697738Y-99529816D01*
X151850478Y-99625789D01*
X151948539Y-99660102D01*
X152020745Y-99685368D01*
X152020750Y-99685369D01*
X152199996Y-99705565D01*
X152200000Y-99705565D01*
X152200004Y-99705565D01*
X152379249Y-99685369D01*
X152379252Y-99685368D01*
X152379255Y-99685368D01*
X152549522Y-99625789D01*
X152702262Y-99529816D01*
X152829816Y-99402262D01*
X152925789Y-99249522D01*
X152985368Y-99079255D01*
X152986881Y-99065826D01*
X153005565Y-98900003D01*
X153005565Y-98899996D01*
X152985369Y-98720750D01*
X152985368Y-98720745D01*
X152968088Y-98671361D01*
X152925789Y-98550478D01*
X152901160Y-98511282D01*
X152886582Y-98488080D01*
X152829816Y-98397738D01*
X152702262Y-98270184D01*
X152588821Y-98198904D01*
X152549521Y-98174210D01*
X152379249Y-98114630D01*
X152292331Y-98104837D01*
X152227917Y-98077770D01*
X152218534Y-98069298D01*
X148479318Y-94330082D01*
X148445833Y-94268759D01*
X148442999Y-94242401D01*
X148442999Y-93702129D01*
X148442998Y-93702123D01*
X148442997Y-93702116D01*
X148442769Y-93699996D01*
X149594435Y-93699996D01*
X149594435Y-93700003D01*
X149614630Y-93879249D01*
X149614631Y-93879254D01*
X149674211Y-94049523D01*
X149770184Y-94202262D01*
X149897738Y-94329816D01*
X149981374Y-94382368D01*
X150050474Y-94425787D01*
X150050478Y-94425789D01*
X150130978Y-94453957D01*
X150220745Y-94485368D01*
X150220750Y-94485369D01*
X150399996Y-94505565D01*
X150400000Y-94505565D01*
X150400004Y-94505565D01*
X150579249Y-94485369D01*
X150579252Y-94485368D01*
X150579255Y-94485368D01*
X150749522Y-94425789D01*
X150788385Y-94401369D01*
X150855620Y-94382368D01*
X150922456Y-94402734D01*
X150966740Y-94453957D01*
X151059431Y-94652732D01*
X151059432Y-94652734D01*
X151189954Y-94839141D01*
X151350858Y-95000045D01*
X151350861Y-95000047D01*
X151537266Y-95130568D01*
X151743504Y-95226739D01*
X151963308Y-95285635D01*
X152125230Y-95299801D01*
X152189998Y-95305468D01*
X152190000Y-95305468D01*
X152190002Y-95305468D01*
X152246673Y-95300509D01*
X152416692Y-95285635D01*
X152636496Y-95226739D01*
X152842734Y-95130568D01*
X153029139Y-95000047D01*
X153190047Y-94839139D01*
X153320568Y-94652734D01*
X153416739Y-94446496D01*
X153475635Y-94226692D01*
X153495468Y-94000000D01*
X153475635Y-93773308D01*
X153416739Y-93553504D01*
X153320568Y-93347266D01*
X153190047Y-93160861D01*
X153190045Y-93160858D01*
X153029141Y-92999954D01*
X152842734Y-92869432D01*
X152842732Y-92869431D01*
X152636497Y-92773261D01*
X152636488Y-92773258D01*
X152416697Y-92714366D01*
X152416693Y-92714365D01*
X152416692Y-92714365D01*
X152416691Y-92714364D01*
X152416686Y-92714364D01*
X152190002Y-92694532D01*
X152189998Y-92694532D01*
X151963313Y-92714364D01*
X151963302Y-92714366D01*
X151743511Y-92773258D01*
X151743502Y-92773261D01*
X151537267Y-92869431D01*
X151537265Y-92869432D01*
X151350862Y-92999951D01*
X151319248Y-93031566D01*
X151287631Y-93063182D01*
X151226311Y-93096666D01*
X151199952Y-93099500D01*
X150982412Y-93099500D01*
X150915373Y-93079815D01*
X150905097Y-93072445D01*
X150902263Y-93070185D01*
X150902262Y-93070184D01*
X150790492Y-92999954D01*
X150749523Y-92974211D01*
X150579254Y-92914631D01*
X150579249Y-92914630D01*
X150400004Y-92894435D01*
X150399996Y-92894435D01*
X150220750Y-92914630D01*
X150220745Y-92914631D01*
X150050476Y-92974211D01*
X149897737Y-93070184D01*
X149770184Y-93197737D01*
X149674211Y-93350476D01*
X149614631Y-93520745D01*
X149614630Y-93520750D01*
X149594435Y-93699996D01*
X148442769Y-93699996D01*
X148436591Y-93642517D01*
X148423840Y-93608332D01*
X148418857Y-93538642D01*
X148423840Y-93521669D01*
X148436591Y-93487483D01*
X148443000Y-93427873D01*
X148442999Y-92432128D01*
X148436591Y-92372517D01*
X148423573Y-92337616D01*
X148418590Y-92267926D01*
X148423575Y-92250949D01*
X148436097Y-92217375D01*
X148436098Y-92217372D01*
X148442499Y-92157844D01*
X148442500Y-92157827D01*
X148442500Y-91810000D01*
X145942500Y-91810000D01*
X145942500Y-92157844D01*
X145948901Y-92217372D01*
X145948903Y-92217379D01*
X145961425Y-92250952D01*
X145966409Y-92320643D01*
X145961425Y-92337617D01*
X145948409Y-92372514D01*
X145948408Y-92372516D01*
X145942001Y-92432116D01*
X145942001Y-92432123D01*
X145942000Y-92432135D01*
X136685173Y-92432135D01*
X136628404Y-92399360D01*
X136628404Y-92399359D01*
X136628400Y-92399358D01*
X136578285Y-92370423D01*
X136425557Y-92329499D01*
X136267443Y-92329499D01*
X136259847Y-92329499D01*
X136259831Y-92329500D01*
X131062089Y-92329500D01*
X130995050Y-92309815D01*
X130949295Y-92257011D01*
X130938800Y-92192242D01*
X130942499Y-92157839D01*
X130942500Y-92157827D01*
X130942500Y-91810000D01*
X128442500Y-91810000D01*
X128442500Y-92157844D01*
X128448901Y-92217372D01*
X128448903Y-92217379D01*
X128461425Y-92250952D01*
X128466409Y-92320643D01*
X128461425Y-92337617D01*
X128448409Y-92372514D01*
X128448408Y-92372516D01*
X128442001Y-92432116D01*
X128442001Y-92432123D01*
X128442000Y-92432135D01*
X114400500Y-92432135D01*
X114400500Y-91162155D01*
X128442500Y-91162155D01*
X128442500Y-91510000D01*
X129542500Y-91510000D01*
X129842500Y-91510000D01*
X130942500Y-91510000D01*
X130942500Y-91162172D01*
X130942499Y-91162155D01*
X145942500Y-91162155D01*
X145942500Y-91510000D01*
X147042500Y-91510000D01*
X147342500Y-91510000D01*
X148442500Y-91510000D01*
X148442500Y-91162172D01*
X148442499Y-91162155D01*
X148436098Y-91102627D01*
X148436096Y-91102620D01*
X148385854Y-90967913D01*
X148385850Y-90967906D01*
X148299690Y-90852812D01*
X148299687Y-90852809D01*
X148184593Y-90766649D01*
X148184586Y-90766645D01*
X148049879Y-90716403D01*
X148049872Y-90716401D01*
X147990344Y-90710000D01*
X147342500Y-90710000D01*
X147342500Y-91510000D01*
X147042500Y-91510000D01*
X147042500Y-90710000D01*
X146394655Y-90710000D01*
X146335127Y-90716401D01*
X146335120Y-90716403D01*
X146200413Y-90766645D01*
X146200406Y-90766649D01*
X146085312Y-90852809D01*
X146085309Y-90852812D01*
X145999149Y-90967906D01*
X145999145Y-90967913D01*
X145948903Y-91102620D01*
X145948901Y-91102627D01*
X145942500Y-91162155D01*
X130942499Y-91162155D01*
X130936098Y-91102627D01*
X130936096Y-91102620D01*
X130885854Y-90967913D01*
X130885850Y-90967906D01*
X130799690Y-90852812D01*
X130799687Y-90852809D01*
X130684593Y-90766649D01*
X130684586Y-90766645D01*
X130549879Y-90716403D01*
X130549872Y-90716401D01*
X130490344Y-90710000D01*
X129842500Y-90710000D01*
X129842500Y-91510000D01*
X129542500Y-91510000D01*
X129542500Y-90710000D01*
X128894655Y-90710000D01*
X128835127Y-90716401D01*
X128835120Y-90716403D01*
X128700413Y-90766645D01*
X128700406Y-90766649D01*
X128585312Y-90852809D01*
X128585309Y-90852812D01*
X128499149Y-90967906D01*
X128499145Y-90967913D01*
X128448903Y-91102620D01*
X128448901Y-91102627D01*
X128442500Y-91162155D01*
X114400500Y-91162155D01*
X114400500Y-90234000D01*
X114420185Y-90166961D01*
X114472989Y-90121206D01*
X114524500Y-90110000D01*
X162475500Y-90110000D01*
X162542539Y-90129685D01*
G37*
G04 #@! TD.AperFunction*
M02*
