%TF.GenerationSoftware,KiCad,Pcbnew,8.0.8*%
%TF.CreationDate,2025-05-02T10:20:33-04:00*%
%TF.ProjectId,esp32,65737033-322e-46b6-9963-61645f706362,rev?*%
%TF.SameCoordinates,Original*%
%TF.FileFunction,Drillmap*%
%TF.FilePolarity,Positive*%
%FSLAX45Y45*%
G04 Gerber Fmt 4.5, Leading zero omitted, Abs format (unit mm)*
G04 Created by KiCad (PCBNEW 8.0.8) date 2025-05-02 10:20:33*
%MOMM*%
%LPD*%
G01*
G04 APERTURE LIST*
%ADD10C,0.038100*%
%ADD11C,0.200000*%
G04 APERTURE END LIST*
D10*
X11390000Y-11150000D02*
X16310000Y-11150000D01*
X11440000Y-6810000D02*
X11390000Y-6850000D01*
X11390000Y-6850000D02*
X11390000Y-11150000D01*
X16310000Y-6810000D02*
X11440000Y-6810000D01*
X16310000Y-11150000D02*
X16310000Y-6810000D01*
D11*
X11648872Y-11463389D02*
X11648872Y-11263389D01*
X11648872Y-11263389D02*
X11696491Y-11263389D01*
X11696491Y-11263389D02*
X11725062Y-11272913D01*
X11725062Y-11272913D02*
X11744110Y-11291960D01*
X11744110Y-11291960D02*
X11753634Y-11311008D01*
X11753634Y-11311008D02*
X11763157Y-11349103D01*
X11763157Y-11349103D02*
X11763157Y-11377674D01*
X11763157Y-11377674D02*
X11753634Y-11415770D01*
X11753634Y-11415770D02*
X11744110Y-11434817D01*
X11744110Y-11434817D02*
X11725062Y-11453865D01*
X11725062Y-11453865D02*
X11696491Y-11463389D01*
X11696491Y-11463389D02*
X11648872Y-11463389D01*
X11848872Y-11463389D02*
X11848872Y-11330055D01*
X11848872Y-11368151D02*
X11858396Y-11349103D01*
X11858396Y-11349103D02*
X11867919Y-11339579D01*
X11867919Y-11339579D02*
X11886967Y-11330055D01*
X11886967Y-11330055D02*
X11906015Y-11330055D01*
X11972681Y-11463389D02*
X11972681Y-11330055D01*
X11972681Y-11263389D02*
X11963157Y-11272913D01*
X11963157Y-11272913D02*
X11972681Y-11282436D01*
X11972681Y-11282436D02*
X11982205Y-11272913D01*
X11982205Y-11272913D02*
X11972681Y-11263389D01*
X11972681Y-11263389D02*
X11972681Y-11282436D01*
X12096491Y-11463389D02*
X12077443Y-11453865D01*
X12077443Y-11453865D02*
X12067919Y-11434817D01*
X12067919Y-11434817D02*
X12067919Y-11263389D01*
X12201253Y-11463389D02*
X12182205Y-11453865D01*
X12182205Y-11453865D02*
X12172681Y-11434817D01*
X12172681Y-11434817D02*
X12172681Y-11263389D01*
X12429824Y-11463389D02*
X12429824Y-11263389D01*
X12429824Y-11263389D02*
X12496491Y-11406246D01*
X12496491Y-11406246D02*
X12563157Y-11263389D01*
X12563157Y-11263389D02*
X12563157Y-11463389D01*
X12744110Y-11463389D02*
X12744110Y-11358627D01*
X12744110Y-11358627D02*
X12734586Y-11339579D01*
X12734586Y-11339579D02*
X12715538Y-11330055D01*
X12715538Y-11330055D02*
X12677443Y-11330055D01*
X12677443Y-11330055D02*
X12658396Y-11339579D01*
X12744110Y-11453865D02*
X12725062Y-11463389D01*
X12725062Y-11463389D02*
X12677443Y-11463389D01*
X12677443Y-11463389D02*
X12658396Y-11453865D01*
X12658396Y-11453865D02*
X12648872Y-11434817D01*
X12648872Y-11434817D02*
X12648872Y-11415770D01*
X12648872Y-11415770D02*
X12658396Y-11396722D01*
X12658396Y-11396722D02*
X12677443Y-11387198D01*
X12677443Y-11387198D02*
X12725062Y-11387198D01*
X12725062Y-11387198D02*
X12744110Y-11377674D01*
X12839348Y-11330055D02*
X12839348Y-11530055D01*
X12839348Y-11339579D02*
X12858396Y-11330055D01*
X12858396Y-11330055D02*
X12896491Y-11330055D01*
X12896491Y-11330055D02*
X12915538Y-11339579D01*
X12915538Y-11339579D02*
X12925062Y-11349103D01*
X12925062Y-11349103D02*
X12934586Y-11368151D01*
X12934586Y-11368151D02*
X12934586Y-11425293D01*
X12934586Y-11425293D02*
X12925062Y-11444341D01*
X12925062Y-11444341D02*
X12915538Y-11453865D01*
X12915538Y-11453865D02*
X12896491Y-11463389D01*
X12896491Y-11463389D02*
X12858396Y-11463389D01*
X12858396Y-11463389D02*
X12839348Y-11453865D01*
X13020300Y-11444341D02*
X13029824Y-11453865D01*
X13029824Y-11453865D02*
X13020300Y-11463389D01*
X13020300Y-11463389D02*
X13010777Y-11453865D01*
X13010777Y-11453865D02*
X13020300Y-11444341D01*
X13020300Y-11444341D02*
X13020300Y-11463389D01*
X13020300Y-11339579D02*
X13029824Y-11349103D01*
X13029824Y-11349103D02*
X13020300Y-11358627D01*
X13020300Y-11358627D02*
X13010777Y-11349103D01*
X13010777Y-11349103D02*
X13020300Y-11339579D01*
X13020300Y-11339579D02*
X13020300Y-11358627D01*
M02*
